<?xml version="1.0" encoding="utf-8"?>
<!-- Generator: Adobe Illustrator 12.0.0, SVG Export Plug-In . SVG Version: 6.00 Build 51448)  -->
<!DOCTYPE svg PUBLIC "-//W3C//DTD SVG 1.1//EN" "http://www.w3.org/Graphics/SVG/1.1/DTD/svg11.dtd" >
<svg  version="1.1" id="Layer_1" xmlns="http://www.w3.org/2000/svg" xmlns:xlink="http://www.w3.org/1999/xlink" width="425.197" height="425.197"
	 viewBox="0 0 425.197 425.197" overflow="visible" enable-background="new 0 0 425.197 425.197" xml:space="preserve">
<g>
	<path fill="none" d="M362.489,79.143c0.034,0.114,0.071,0.226,0.103,0.341C362.563,79.369,362.523,79.257,362.489,79.143z"/>
	<path fill="none" d="M344.206,53.233c0.411,0.733,0.669,1.456,0.838,2.174C345.037,53.631,344.828,52.534,344.206,53.233z"/>
	<path fill="none" d="M339.986,59.214c-1.62,2.293-3.533,4.972-5.442,7.54c0.164,0.146,0.32,0.298,0.482,0.445
		C336.843,64.644,338.361,61.894,339.986,59.214z"/>
	<path fill="none" d="M295.156,20.739c0.604-1.019,1.236-2.082,1.684-2.897C296.227,18.061,295.673,19.12,295.156,20.739z"/>
	<path fill="none" d="M300.011,28.448c-0.167-1.895-0.354-8.499-2.157-10.256c1.185,4.835,2.105,9.892,2.464,14.965
		C300.251,31.574,300.146,30,300.011,28.448z"/>
	<path fill="none" d="M328.402,41.866c-0.315-5.376-1.909-6.552-6.118,2.515c-0.476,1.021-2.181,4.76-4.157,9.171
		c0.137,0.098,0.269,0.201,0.406,0.3C322.688,43.265,327.011,33.483,328.402,41.866z"/>
	<path fill="none" d="M257.761,24.984c-0.123-0.447-0.243-0.886-0.346-1.299c-0.16,0.129-0.274,0.29-0.422,0.429
		c0.144,0.251,0.285,0.52,0.43,0.782C257.534,24.926,257.647,24.954,257.761,24.984z"/>
	<path fill="none" d="M409.988,225.68c0.646,0.595,1.284,1.2,1.942,1.783c0.123-1.317,0.204-2.635,0.261-3.952
		C411.84,225.028,411.16,225.918,409.988,225.68z"/>
	<path fill="none" d="M406.438,190.576c-2.604-6.305-6.069-12.252-10.354-17.645c0.083,0.378,0.154,0.759,0.232,1.138
		C400.293,179.174,403.779,184.698,406.438,190.576z"/>
	<path fill="none" d="M286.702,18.744c-0.163-0.015-0.342,0.049-0.532,0.147c0.128,0.16,0.257,0.357,0.386,0.597
		C286.618,19.16,286.666,18.904,286.702,18.744z"/>
	<path fill="none" d="M314.857,33.433c0.016,0.16,0.038,0.32,0.052,0.481C314.892,33.754,314.879,33.592,314.857,33.433z"/>
	<path fill="none" d="M401.168,220.524c-0.193,0.43-0.533,0.776-0.966,1.063c0,0.04-0.003,0.08-0.005,0.12
		c1.149-0.17,2.299-0.358,3.452-0.612c-0.813-0.693-1.646-1.321-2.47-1.982C401.349,219.628,401.357,220.102,401.168,220.524z"/>
	<path fill="none" d="M371.833,99.33c0.26,1.964-1.831,5.155-1.449,6.572c0.063,0.229,0.139,0.405,0.216,0.567
		c0.825-2.368,1.521-4.799,1.361-7.335c-2.321,0.798-5.85,1.094-8.514,0.043c0.114,0.165,0.23,0.331,0.349,0.496
		C365.361,100.354,367.876,100.342,371.833,99.33z"/>
	<path fill="none" d="M313.538,50.382c0.105,0.071,0.207,0.145,0.313,0.217c0.646-2.896,1.093-5.896,1.262-8.918
		c0.025-1.626,0.036-3.263,0.03-4.862c-0.036-0.785-0.115-1.563-0.189-2.342C315.323,39.752,314.575,45.108,313.538,50.382z"/>
	<path fill="none" d="M378.255,123.428c0.091-0.997,0.211-1.997,0.401-3c-0.44,0.218-0.817,0.337-1.161,0.399
		c0.15,0.555,0.289,1.209,0.418,1.944C378.029,122.99,378.143,123.209,378.255,123.428z"/>
	<path fill="#047391" d="M65.576,338.186c-2.106-6.515-3.702-13.196-4.182-20.042c0.805,0,1.608,0,2.414,0l0,0
		c-5.025,0.835-6.183-79.756,7.812-76.092c0.531-0.967,1.074-1.925,1.589-2.897c-1.763,2.074-3.382,3.279-4.609,2.928
		c3.398-8.823,8.263-16.186,12.857-24.33c4.091-7.252,2.328-15.999,3.788-23.91c1.298-7.027,2.947-25.582,11.9-27.663
		c0.091-0.144,0.183-0.286,0.275-0.427c-0.401,0.172-0.808,0.3-1.217,0.323c9.622-18.295,21.117-36.769,38.265-48.925
		c5.435-3.854,11.436-6.57,17.439-9.297c5.326-2.909,10.702-5.77,16.094-8.595c5.276-3.836,11.144-8.861,17.307-9.374
		c9.298-5.374,18.93-10.262,28.705-14.708c0.533-0.243,1.225-0.523,2.006-0.833c3.619-1.727,11.047-4.234,12.629-7.045
		c0.021-0.046,0.039-0.09,0.057-0.135c0.06-0.122,0.098-0.243,0.133-0.366c0.099-0.478,0.019-0.959-0.301-1.44
		c0.052,0.008,0.103,0.014,0.153,0.021c-0.039-0.078-0.049-0.154-0.102-0.233c0.058,0.087,0.166,0.173,0.291,0.259
		c2.783,0.374,5.563,0.75,8.346,1.125c-0.404-1.922-1.156-4.237-1.885-6.611c-0.947-2.492-1.723-5.061-1.768-7.263
		c-0.623-5.105,1.18-8.51,10.654-5.536c-1.551-8.568-6.947-20.287,6.391-14.365c0.521-2.126,1.067-6.196,2.383-9.005
		C188.086,8.086,116.913,27.103,69.4,75.612C25.51,120.425,4.961,185.464,16.037,247.293c6.524,36.427,23.556,70.441,48.128,97.657
		C65.58,342.977,66.425,340.802,65.576,338.186z"/>
	<path fill="#047391" d="M363.754,166.724c0.151,1.06,0.093,1.956-0.116,2.725c0.001,0.009,0.003,0.02,0.006,0.031
		c0.331-0.691,0.564-1.501,0.712-2.416c-0.135-0.176-0.271-0.35-0.41-0.533C363.882,166.592,363.818,166.657,363.754,166.724z"/>
	<path fill="#047391" d="M363.678,166.177c0.093,0.12,0.18,0.234,0.268,0.353c0.165-0.158,0.33-0.298,0.494-0.417
		c-1.352-0.276-2.556-1.224-3.646-2.368c0.859,1.242,1.559,2.552,2.136,3.92c0.278-0.334,0.553-0.661,0.825-0.942
		C363.727,166.541,363.717,166.369,363.678,166.177z"/>
	<path fill="#047391" d="M302.938,43.757c-0.147-0.083-0.29-0.168-0.436-0.252c-0.05,0.937-0.093,1.635-0.109,1.985
		C302.57,44.965,302.752,44.374,302.938,43.757z"/>
	<path fill="#047391" d="M270.55,42.535c1.498-2.85,3.046-7.343,4.862-11.861c-4.416-1.669-8.882-3.16-13.383-4.483
		c0.543,1.854,0.845,3.863,1.268,5.296C264.527,35.665,267.444,39.551,270.55,42.535z"/>
	<path fill="#047391" d="M332.861,65.272c-1.269-1.114-2.544-2.222-3.843-3.303c-0.728,4.714-1.471,8.401-1.731,9.299
		C329.32,69.372,331.17,67.376,332.861,65.272z"/>
	<path fill="#047391" d="M370.237,159.69c0.456-1.82,0.947-3.538,1.582-4.917c-1.896,2.255-3.063,5.904-3.404,9.493
		C368.831,162.843,369.478,161.239,370.237,159.69z"/>
	<path fill="#047391" d="M325.1,163.109c2.217,0.88,3.692,0.962,4.732,0.538c0.71-0.521,1.337-1.288,1.936-2.251
		c0.774-2,0.965-4.853,1.947-7.292c0.531-1.318,1.262-2.28,2.136-2.967c-1.709,1.08-2.901,3.163-3.285,6.633
		c-0.726,6.528-4.379,7.026-9.282,4.098c-0.022,0.104-0.043,0.208-0.068,0.313C323.816,162.527,324.436,162.846,325.1,163.109z"/>
	<path fill="#047391" d="M378.174,124.442c0.021-0.338,0.05-0.676,0.081-1.014c-0.112-0.219-0.226-0.438-0.342-0.656
		C378.005,123.288,378.091,123.852,378.174,124.442z"/>
	<path fill="#047391" d="M316.478,52.401c-0.553-0.386-1.11-0.763-1.666-1.144c-0.184,3.977-0.396,6.916-0.507,7.478
		C314.958,57.193,315.67,54.93,316.478,52.401z"/>
	<path fill="#047391" d="M340.882,229.079c-1.937,1.321-3.908,2.217-5.763,3.12c1.535-0.493,2.994-1.141,4.283-1.992
		C339.922,229.863,340.405,229.475,340.882,229.079z"/>
	<path fill="#047391" d="M396.316,174.069c-0.078-0.379-0.149-0.759-0.232-1.138c-1.219-1.539-2.513-3.029-3.868-4.471
		c1.326,1.889,2.468,3.539,3.31,4.594C395.792,173.389,396.054,173.731,396.316,174.069z"/>
	<path fill="#047391" d="M346.518,90.17c1.447,0.341,2.896,0.322,4.346-0.095c0.076-0.083,0.151-0.167,0.227-0.25
		c-0.858,0.273-1.769,0.387-2.744,0.241c0.529-0.606,2.191-2.571,4.248-4.803c-0.936-1.095-1.889-2.176-2.848-3.251
		C349.495,85.563,348.601,88.565,346.518,90.17z"/>
	<path fill="#047391" d="M326.092,77.279c-0.093,0.22-0.197,0.437-0.285,0.659C325.895,77.928,325.989,77.688,326.092,77.279z"/>
	<path fill="#047391" d="M255.867,25.353c0.153-0.217,0.344-0.415,0.516-0.621C256.205,24.936,256.025,25.136,255.867,25.353z"/>
	<path fill="#047391" d="M269.453,48.607c0.095,0.11,0.185,0.226,0.283,0.332C269.643,48.836,269.548,48.715,269.453,48.607z"/>
	<path fill="#047391" d="M289.645,377.485c0.581,3.375,2.702,7.852,2.086,11.025c3.348-1.629,6.653-3.355,9.904-5.187
		c-4.049-1.639-8.293-3.026-11.962-5.82C289.663,377.497,289.655,377.492,289.645,377.485z"/>
	<path fill="#047391" d="M254.857,27.128c0.192-0.439,0.438-0.85,0.686-1.258C255.291,26.276,255.052,26.688,254.857,27.128z"/>
	<path fill="#047391" d="M297.516,54.195c-0.034,0.085-0.065,0.172-0.103,0.257C297.45,54.366,297.482,54.28,297.516,54.195z"/>
	<path fill="#047391" d="M269.699,391.82c-2.464-0.349-4.893-0.768-7.22-1.207c-2.326-0.441-14.391-2.071-24.347-4.635
		c-5.461,0.485-11.412,3.253-15.068-2.431c-0.002,0-0.004,0.004-0.007,0.004c1.317,4.128,1.907,7.798-3.858,6.984
		c-3.771-0.533-7.316-2.283-10.645-4.027c-1.158,1.496-2.465,2.848-3.924,4.051c-8.541,7.009-20.458,6.286-30.208,2.511
		c-11.34-4.39-15.69-12.114-24.139-19.578c-3.439-3.037-9.192,0.888-12.725,2.29c-6.849,2.716-15.05,6.561-23.293,8.947
		c3.791,2.082,7.652,4.048,11.6,5.863c49.19,22.652,106.776,23.003,156.195,2.281C277.954,393.078,273.442,392.424,269.699,391.82z"
		/>
	<path fill="#047391" d="M335.026,67.199c-0.162-0.147-0.318-0.299-0.482-0.445c-0.424,0.57-0.845,1.133-1.265,1.687
		c0.43-0.239,0.869-0.464,1.337-0.656C334.76,67.593,334.888,67.394,335.026,67.199z"/>
	<path fill="#047391" d="M253.937,36.489c-0.063-0.461-0.102-0.936-0.141-1.41C253.835,35.554,253.873,36.029,253.937,36.489z"/>
	<path fill="#047391" d="M296.862,55.744c-0.304,0.663-0.614,1.322-0.961,1.973C296.246,57.068,296.562,56.409,296.862,55.744z"/>
	<path fill="#047391" d="M347.119,94.192c-0.789-1.264-1.148-2.639-1.072-4.126c0.133,0.039,0.267,0.056,0.399,0.087
		c-0.02-0.652,0.47-5.946,0.911-10.614C345.628,84.796,343.158,90.382,347.119,94.192z"/>
	<path fill="#047391" d="M399.907,221.758c0.099-0.014,0.193-0.036,0.29-0.051c0.002-0.04,0.005-0.08,0.005-0.12
		C400.11,221.647,400.009,221.703,399.907,221.758z"/>
	<path fill="#047391" d="M349.203,216.75c-0.014,0.102-0.041,0.188-0.055,0.287c6.188,0.341,12.349,1.364,18.503,2.441
		c-6.151-1.217-12.321-2.429-18.434-2.888C349.211,216.646,349.211,216.693,349.203,216.75z"/>
	<path fill="#047391" d="M359.282,219.107c0.195,0.82,0.438,1.601,0.703,2.364c0.036-0.012,0.058-0.038,0.115-0.021
		c0.557,1.243,1.057,2.516,1.585,3.771c-0.193-0.327-0.409-0.694-0.623-1.068c2.669,5.853,6.692,10.615,7.419,17.93
		c0.226,17.987-8.688,32.644-19.454,46.302c-2.99,3.793-24.371,22.65-22.863,28.835c0.17,0.35,0.343,0.692,0.519,1.037
		c0.221,0.424,0.446,0.848,0.669,1.272c0.319,0.591,0.644,1.179,0.994,1.753c-0.029-0.005-0.048,0.002-0.077,0
		c0.032,0.056,0.061,0.114,0.092,0.173c-0.602-0.113-1.052-0.106-1.439-0.053c-3.422,1.12,2.951,9.377,4.123,11.165
		c4.227,6.448,8.686,12.935,10.831,20.233c33.907-33.686,55.043-79.58,58.137-127.434
		C390.068,231.721,367.706,221.528,359.282,219.107z"/>
	<path fill="#047391" d="M357.693,220.145c-0.13-1.002-0.095-1.75,0.157-2.107c-1.328-0.307-2.57-0.242-3.741,0.082
		C355.412,218.075,356.606,218.857,357.693,220.145z"/>
	<path fill="#047391" d="M365.031,255.008c0.928-4.118,1.174-8.42,0.437-12.926c0.882,0,1.765,0,2.645,0
		c-0.896-0.185-2.15-1.758-3.48-4.028C365.964,243.722,366.076,249.463,365.031,255.008z"/>
	<path fill="#047391" d="M337.297,297.564c1.016-1.43,2.028-2.862,3.052-4.286c-0.872,1.033-1.733,2.073-2.578,3.122
		C337.629,296.795,337.462,297.179,337.297,297.564z"/>
	<path fill="#047391" d="M349.076,217.382c-0.006,0.047-0.017,0.093-0.026,0.14c0.037-0.049,0.076-0.096,0.112-0.146
		C349.133,217.377,349.104,217.381,349.076,217.382z"/>
	<path fill="#047391" d="M63.903,318.511c0.475,3.473,1.943,7.424,3.323,11.363C66.315,326.049,64.824,322.175,63.903,318.511z"/>
	<path fill="#047391" d="M312.916,54.275c0.354-1.199,0.657-2.43,0.936-3.676c-0.106-0.072-0.208-0.146-0.313-0.217
		c-0.372,1.874-0.777,3.738-1.183,5.584C312.594,55.28,312.792,54.698,312.916,54.275z"/>
	<path fill="#047391" d="M381.83,135.086c0.612,4.425,2.182,8.629,3.037,13.001c1.571,8.001,1.026,12.044,7.128,17.988
		c-0.032,0.005-0.06,0.001-0.092,0.005c0.967,0.126,1.899,0.434,2.794,0.891c-3.11-12.533-7.45-24.72-12.908-36.377
		C381.692,132.148,381.634,133.674,381.83,135.086z"/>
	<path fill="#047391" d="M258.155,26.312c-0.141-0.455-0.274-0.9-0.395-1.327c-0.113-0.031-0.227-0.059-0.338-0.088
		C257.668,25.354,257.914,25.825,258.155,26.312z"/>
	<path fill="#047391" d="M254.851,27.145c-0.994,2.266-1.256,4.922-1.1,7.464C253.6,32.067,253.857,29.423,254.851,27.145z"/>
	<path fill="#047391" d="M379.497,138.605c0.645,8.04,1.378,15.821,2.94,17.433C382.102,150.177,380.636,144.398,379.497,138.605z"
		/>
	<path fill="#047391" d="M363.796,99.673c-0.118-0.165-0.234-0.331-0.349-0.496c-0.322-0.126-0.642-0.246-0.93-0.412
		C362.845,99.142,363.27,99.444,363.796,99.673z"/>
	<path fill="#047391" d="M244.431,33.212c0.696,0.082,1.354,0.263,1.997,0.483c-0.731-0.435-1.472-0.859-2.2-1.299
		c0.696,3.438,1.286,6.91,1.739,10.39C246.076,39.716,246.18,33.417,244.431,33.212z"/>
	<path fill="#047391" d="M310.215,71.904c0.047,0.017,0.099,0.02,0.15,0.014c-0.313-0.279-0.548-0.639-0.721-1.063
		C309.733,71.409,309.905,71.799,310.215,71.904z"/>
	<path fill="#047391" d="M326.557,76.272c-0.104,0.082-0.206,0.159-0.3,0.221c-0.056,0.302-0.111,0.575-0.165,0.786
		C326.239,76.94,326.398,76.607,326.557,76.272z"/>
	<path fill="#047391" d="M318.533,53.853c-0.138-0.099-0.27-0.203-0.406-0.3c-3.374,7.54-7.531,17.038-7.667,18.333
		C311.977,71.34,315.199,62.345,318.533,53.853z"/>
	<path fill="#FFFFFF" d="M57.031,357.151c0.1-1.139,0.255-2.208,0.496-3.147C57.177,354.987,57,356.031,57.031,357.151z"/>
	<path fill="#FFFFFF" d="M342.487,373.188c-0.058,0.346-0.111,0.693-0.205,1.033C342.367,373.957,342.438,373.616,342.487,373.188z"
		/>
	<path fill="#FFFFFF" d="M60.58,379.658c-0.403-0.946-0.79-2.032-1.153-3.217C59.715,377.545,60.08,378.623,60.58,379.658z"/>
	<path fill="#FFFFFF" d="M341.298,363.074c-0.319-1.439-0.627-2.881-0.849-4.334c-0.041-0.082-0.09-0.161-0.13-0.248
		C340.521,359.95,340.9,361.497,341.298,363.074z"/>
	<path fill="#FFFFFF" d="M346.813,394.153c-2.825-6.162-5.649-12.322-8.476-18.483c0.729,2.76,1.39,5.531,1.885,8.282
		c-12.617-3.446-8.838-23.221-12.32-32.555c0.704,3.761,3.203,14.55-2.238,16.101c-6.117,1.742-7.208-9.238-11.42-11.335
		c-0.341,5.612,3.623,13.59,7.051,17.791c3.677,4.502,4.557-0.101,6.612,6.141c1.741,5.292,4.192,11.019,2.662,16.699
		c-3.729,13.861-13.837,0.446-17.328-4.983c-0.317-0.498-0.657-0.958-1.005-1.397c2.026,3.123,3.512,6.701,6.13,9.65
		c3.758,4.223,8.932,7.169,14.264,8.914c7.646,2.503,4.346-9.615,3.229-13.448c3.208,2.131,6.204,5.018,10.028,6.025
		c7.081,1.867,0.771-8.683,0.258-10.81c-0.953-3.927-2.215-7.784-3.831-11.491c-0.108-0.25-0.193-0.45-0.286-0.667
		c0.303,1.027,0.859,2.253,1.632,4.344C345.012,386.576,346.052,390.339,346.813,394.153z"/>
	<path fill="#FFFFFF" d="M170.797,209.961c0.245-0.032,0.482-0.071,0.694-0.125C171.246,209.897,171.027,209.921,170.797,209.961z"
		/>
	<path fill="#FFFFFF" d="M163.772,205.25c-0.749,2.745,1.562,4.154,4.045,4.612c-1.506-0.484-2.509-1.651-3.202-3.213
		c-0.059-0.044-0.122-0.08-0.177-0.125c0.032-0.027,0.063-0.055,0.094-0.082c-0.253-0.604-0.453-1.272-0.632-1.966
		C163.878,204.744,163.84,205.004,163.772,205.25z"/>
	<path fill="#FFFFFF" d="M289.645,377.485L289.645,377.485c0.011,0.007,0.019,0.012,0.028,0.019
		C289.663,377.497,289.655,377.492,289.645,377.485z"/>
	<path fill="#FFFFFF" d="M154.107,178.556c-0.139-0.315-0.28-0.631-0.397-0.955C153.836,177.923,153.963,178.243,154.107,178.556z"
		/>
	<path fill="#FFFFFF" d="M269.699,391.82c3.743,0.604,8.255,1.258,12.36,1.054c1.292-0.065,2.536-0.219,3.707-0.482
		C280.573,392.976,275.044,392.584,269.699,391.82z"/>
	<path fill="#FFFFFF" d="M162.175,191.562c0.466-0.532,0.93-1.064,1.394-1.595C162.898,190.41,162.463,190.954,162.175,191.562z"/>
	<path fill="#FFFFFF" d="M328.346,321.281c-0.351-0.574-0.675-1.162-0.994-1.753c0.305,0.584,0.611,1.168,0.917,1.753
		C328.298,321.283,328.316,321.276,328.346,321.281z"/>
	<path fill="#FFFFFF" d="M325.459,330.682c-1.164-0.902-2.312-1.823-3.446-2.762c0.712,4.713,4.649,7.97,5.831,12.504
		c-3.141-2.171-6.349-5.163-10.494-4.779c7.646,7.194,13.671,13.584,16.392,23.805c0.748,2.809,1.61,5.722,2.481,8.689
		c2.171,0.541,3.447,3.219,4.763,4.719c-0.768-4.318-1.534-8.637-2.302-12.953c-2.07-4.984-1.016-5.76,3.17-2.329
		c-2.305-9.546-9.073-15.826-13.484-24.211c-1.659-3.153-2.753-6.557-3.909-9.914c-1.756-5.104,2.788-2.924,0.631-5.307
		c0.51,0,1.021,0,1.532,0c-0.707-0.15-1.291-0.442-1.754-0.865C320.04,315.328,324.474,326.964,325.459,330.682z"/>
	<path fill="#FFFFFF" d="M156.62,210.906c-0.301-0.452-0.69-0.902-1.119-1.36c0.193,0.813-0.012,1.361-0.563,1.611
		C156.054,211.074,156.934,210.982,156.62,210.906z"/>
	<path fill="#FFFFFF" d="M326.164,317.219c0.085,0.348,0.224,0.662,0.459,0.925c0.02,0.037,0.039,0.076,0.06,0.112
		C326.507,317.911,326.334,317.568,326.164,317.219z"/>
	<path fill="#FFFFFF" d="M151.794,211.698c1.883,2.545,7.567,7.399,5.181,8.377c1.787-0.024,3.573-0.109,5.36-0.202
		C157.578,219.726,155.733,215.577,151.794,211.698z"/>
	<path fill="#FFFFFF" d="M154.983,189.739c0.863-4.115,0.596-5.246-0.771-7.676c1.352,2.483,1.989,4.659-0.188,7.757
		c-0.618,0.882-1.03,1.567-1.311,2.132C153.652,191.231,154.817,190.531,154.983,189.739z"/>
	<path fill="#FFFFFF" d="M163.083,199.767c-0.334-2.735-0.575-5.471-1.174-7.513C161.346,194.375,162.303,197.139,163.083,199.767z"
		/>
	<path fill="#FFFFFF" d="M163.724,219.821c-1.906-3.984,4.844-8.271,7.768-9.985C168.32,211.698,161.651,215.49,163.724,219.821z"/>
	<path fill="#FFFFFF" d="M151.2,210.548c0.008,0.206,0.141,0.485,0.353,0.809c0.255-0.015,1.021-0.054,1.89-0.104
		C152.814,211.151,152.069,210.924,151.2,210.548z"/>
	<path fill="#FFFFFF" d="M150.283,373.492c8.449,7.464,12.799,15.188,24.139,19.578c9.75,3.775,21.667,4.498,30.208-2.511
		c1.459-1.203,2.767-2.555,3.924-4.051c3.329,1.744,6.875,3.494,10.645,4.027c5.766,0.813,5.176-2.856,3.858-6.984
		c-2.597,1.971-8.324-0.201-11.313-1.528c-7.018-3.118-3.472,1.283-8.849,3.643c-3.743,1.643-6.834-1.49-10.35-1.971
		c-3.344-0.457-6.638,0.872-9.919-0.388c-4.233-1.622-1.241-7.903-3.367-10.961c7.77-0.525,13.177,6.806,21.441,6.379
		c10.346-0.534,2.791-9.621,2.333-15.926c2.574,4.738,8.234,10.685,14.212,7.722c5.064-2.51,2.323-7.195,2.473-11.461
		c0.932,1.991,3.893,7.325,6.967,9.393c0.121-1.916,0.394-3.821,0.879-5.684c-0.191,2.009-0.271,4.03-0.265,6.049
		c1.668,0.867,3.329,0.652,4.682-1.701c4.476-7.797,3.26-20.653-0.613-28.388c1.306,5.512,2.337,12.11-0.495,17.353
		c-6.652-14.848-18.974-34.632-12.335-51.419c2.154,4.099,4.263,8.725,8.476,11.136c-2.73-10.117-8.649-19.021-11.229-29.206
		c-0.992-3.915-1.801-9.312,0.995-12.776c-1.034-0.011-2.093-0.232-3.169-0.963c3.228-0.594,6.448-2.003,9.447-3.971
		c-0.145-3.516,3.892-8.936,5.489-11.041c1.886-2.491,4.147-4.681,6.218-7.021c0.871-1.345,1.854-2.615,2.939-3.786
		c0.077-0.118,0.151-0.24,0.226-0.36c0.003-0.019,0.008-0.039,0.01-0.058c-1.142,0.324-2.284,0.646-3.426,0.969
		c1.604-1.613,3.24-4.204,5.447-5.225c0.038-0.093,0.077-0.183,0.118-0.274c-0.032-0.003-0.064,0-0.096-0.005
		c0.055-0.057,0.112-0.112,0.168-0.17c0.72-1.69,1.601-3.295,3.081-3.99c-1.737,0.392-3.486,0.741-5.239,1.044
		c1.236-1.794,1.38-3.668,0.43-5.622c12.659-1.435,30.798-10.157,33.315-24.316c-3.991,0.847-7.983,1.694-11.974,2.541
		c0.747-2.82,7.265-3.097,12.055-3.654c-0.041-0.493-0.2-0.877-0.471-1.155c-0.08,0.041-0.159,0.081-0.235,0.121
		c0.035-0.076,0.079-0.146,0.117-0.221c-3.069-2.591-16.864,5.091-18.953,5.97c1.115-1.48,2.089-3.049,2.928-4.704
		c-1.322-0.579-2.691-0.961-4.109-1.166c3.604,0.828-9.928,4.989-11.631,5.262c-7.306,1.176-14.795,0.509-22.084-0.635
		c-0.565,0.132-1.003,0.226-1.246,0.273c-8.505,1.641-16.717-1.749-23.029-7.418c-4.881-3.033-8.598-7.464-9.871-14.257
		c1.988,5.261,5.474,10.308,9.871,14.257c6.095,3.787,14.007,5.395,21.295,6.653c0.99,0.171,1.984,0.336,2.98,0.492
		c5.142-1.195,21.73-5.638,17.711-9.419c4.955-0.264,13.172-0.456,21.11-1.697l12.558-6.125c-1.17,1.75-2.672,3.218-4.385,4.355
		c0.941-0.276,1.86-0.577,2.743-0.904c1.556-3.71,4.431-6.592,3.79-2.584c1.122-4.702,5.897-3.531,8.229-6.981
		c0.143,0.199,0.247,0.472,0.325,0.778c1.1-0.609,2.417-1.257,3.784-1.849c-0.151-0.452,0.1-1.036,1.106-1.733
		c0.52,0.292,0.936,0.557,1.276,0.8c1.131-0.399,2.219-0.714,3.163-0.874c-0.17-0.139-0.357-0.299-0.558-0.485
		c1.114-0.743,1.456-0.056,2.606,0.357c-0.011,0.034-0.024,0.057-0.035,0.088c0.785,0.18,1.203,0.683,1.034,1.644
		c0.077-0.427,0.153-0.86,0.232-1.294c-0.568-0.531-0.679-1.331-0.412-2.374c0.295,0.099,0.563,0.206,0.811,0.325
		c0.529-2.517,1.271-5.02,2.742-7.112c2.346-3.336,6.043-1.754,8.582-4.197c5.56-5.352-5.298-21.856-8.097-26.522
		c2.07,1.426,4.225,2.715,6.46,3.867c6.398-12.184-0.311-25.572-1.668-38.07c0.062,0.57,1.672,1.008,3.243,1.587
		c-0.676-1.058-1.294-2.171-1.744-3.437c-0.617-1.728-0.806-3.637-0.813-5.587c-1.048-4.712-1.189-9.402,0.327-12.683
		c-0.07-0.941-0.29-1.833-0.822-2.446c-1.069-0.334-2.201,0.304-3.349,0.631c0,0.002,0,0.005,0,0.008
		c-0.002-0.002-0.004-0.005-0.004-0.008c-0.302,0.086-0.604,0.144-0.907,0.158c-0.112,0.101-0.19,0.197-0.278,0.296
		c0.423-0.083,1.042-0.039,1.906,0.167c-0.323,1.052-0.646,2.105-0.971,3.158c-0.991-1.173-1.484-2.023-1.542-2.583
		c-2.814-2.208-4.1-5.245-6.548-7.609c-1.385-1.336-5.158-2.711-7.077-4.408c-0.057-0.022-0.11-0.049-0.169-0.07
		c0.434,0.855,1.284,1.681,1.281,3.057c-0.155-0.37-0.317-0.738-0.477-1.108c1.329,3.184,2.638,6.375,3.95,9.565
		c0.698,1.647,1.396,3.294,2.096,4.94c-2.706-0.507-4.193-3.138-5.928-4.94c0.646,0,1.293,0,1.939,0
		c-2.358-0.149-5.95-0.104-7.205-2.701c-1.607-2.295-3.465-4.367-5.571-6.215c4.259,2.972,8.519,5.944,12.776,8.916
		c0.328,0,0.654,0,0.982,0c-0.408-0.071-0.773-0.257-1.105-0.52c0.044,0.139,0.082,0.278,0.123,0.417
		c-9.133-7.015-18.006-14.551-28.143-20.093c4.263,2.597,7.748,6.394,10.306,10.668c-3.85-3.346-7.702-6.692-11.553-10.037
		c1.806,3.26,3.612,6.52,5.416,9.781c-0.945-0.658-1.896-1.31-2.845-1.967c0.447,0.403,0.887,0.814,1.309,1.25
		c-0.482-0.501-1.014-0.968-1.557-1.422c-1.905-1.318-3.811-2.636-5.72-3.951c-0.973-0.615-1.936-1.229-2.842-1.861
		c-0.153-0.108-4.622-3.117-7.708-4.522c0.542,1.155,0.896,2.097,0.911,2.692c-3.681-1.24-7.359-2.48-11.038-3.719
		c5.187,4.029-14.586,9.82-17.799,11.148c-7.128,2.948-16.539,11.464-24.968,12.263c-19.599,10.882-42.095,17.668-58.374,33.753
		c-8.137,8.042-17.02,17.545-22.788,27.477c-1.806,3.107-5.547,12.513-9.793,14.326c-0.092,0.142-0.184,0.284-0.275,0.427
		c0.115-0.027,0.218-0.083,0.334-0.104c-8.727,15.638-8.867,30.756-11.013,47.784c-0.339,2.685-7.555,18.588-13.258,25.295
		c-0.515,0.973-1.058,1.931-1.589,2.897c0.052,0.013,0.099,0.016,0.15,0.03c-3.154,8.019-5.643,16.314-7.231,24.786
		c-0.757,4.033-3.99,15.37-1.661,19.055c4.339,6.863-0.29,22.715,0.969,32.221c0.014,0.119,0.039,0.245,0.057,0.367
		c0.921,3.664,2.412,7.538,3.323,11.363c1.544,4.412,2.963,8.804,2.697,12.47c-0.232,3.203-5.048,2.697-5.092,6.654
		c-0.056,5.337-4.057,8.706-4.126,14.313c-0.076,6.14-0.679,12.616,1.21,18.57c0.068,0.097,0.126,0.196,0.198,0.292
		c-2.355-7.18,2.455,1.405,6.049,2.304c4.698,1.17,9.687-0.901,14.102-2.257c4.535-1.393,7.278-3.137,8.96,1.021
		c0.839,2.072,2.979,2.984,5.047,3.322c5.662,0.924,11.84-0.052,17.995-1.834c8.243-2.387,16.444-6.231,23.293-8.947
		C141.09,374.38,146.843,370.455,150.283,373.492z M294.881,96.179c1.896,5.436,3.003,11.155,3.169,16.914
		c-1.738-7.438-3.477-14.876-5.216-22.314C293.556,92.565,294.238,94.364,294.881,96.179z M288.234,151.913
		c-0.716-1.444-1.429-2.887-2.145-4.332C288.58,146.468,289.294,147.911,288.234,151.913z M265.693,193.126
		c-6.326,2.724-13.117,4.504-20.034,4.584c7.887-2.241,15.775-4.481,23.663-6.725C268.113,191.699,266.904,192.413,265.693,193.126z
		 M276.327,152.268c-1.771-4.55-3.544-9.102-5.317-13.652C273.327,142.714,277.469,147.244,276.327,152.268z M276.07,132.401
		c-2.011-3.023-4.021-6.045-6.029-9.069C273.126,125.39,275.524,128.674,276.07,132.401z M275.815,135.916
		c-5.844-5.603-11.689-11.208-17.533-16.811C264.979,123.68,272.311,128.247,275.815,135.916z M268.904,150.741
		c-0.376-1.558-0.914-3.127-1.952-4.673c-2.864-4.268-6.624-7.913-9.027-12.495c3.698,2.338,6.637,5.726,9.277,9.16
		c-1.563-1.863-2.033-3.965-1.406-6.307c4.642,4.37,7.005,10.576,7.67,16.812c-0.979-2.197-2.122-4.305-3.43-6.323
		c1.887,3.258,4.154,8.315,0.974,11.621c-0.245-0.456-0.446-0.919-0.622-1.39c-3.688,0.012-5.651,5.611-8.116,7.503
		c-3.675,2.819-8.277,4.254-12.881,4.382c8.185-1.96,13.235-8.756,19.266-14.01c-6.86-15.283-21.432-26.526-38.587-26.288
		C246.323,125.084,262.346,136.125,268.904,150.741z M228.482,133.267c-5.328,1.931-5.268,5.884-5.517,10.8
		c0.968-3.25,2.766-6.313,5.33-8.562c3.489-1.453,3.687-2.33,0.676-2.646c-0.513-0.014-0.843-0.039-0.868-0.08
		c0.331,0.02,0.591,0.051,0.868,0.08c2.377,0.068,8.925-0.09,9.783-0.027c5.589,0.414,11.174,2.624,15.65,5.994
		c4.713,3.549,10.366,10.064,9.896,16.412c-0.157,2.1-6.273,4.954-7.838,5.917c-10.13,6.225-25.106,2.74-31.689-7.194
		C220.873,148.074,217.251,133.267,228.482,133.267z M218.159,133.572c0.557,1.565,0.506,3.11-0.152,4.636
		c-1.418,12.781,6.288,24.444,17.482,30.108C219.729,166.711,214.104,146.651,218.159,133.572z M215.193,195.012
		c0.579,0.696,1.159,1.392,1.737,2.089c-0.716,0.144-7.75,2.167-6.132,0.457c-3.353,0.872-9.58,4.441-2.146-1.478
		c-1.875,0.629-3.749,1.256-5.624,1.885C205.764,195.371,211.63,191.85,215.193,195.012z M142.001,224.049
		c0.902-1.563,1.803-3.125,2.708-4.687C144.63,221.401,143.726,222.964,142.001,224.049z M148.95,222.979
		c-1.447,2.276-2.895,4.551-4.343,6.827C144.589,227.021,146.019,223.791,148.95,222.979z M148.549,238.642
		c-0.362,2.413,0.854,12.232-0.211,10.014c-3.379-8.398-1.103-18.139,6.186-23.689C151.329,228.88,149.297,233.654,148.549,238.642z
		 M160.502,188.541c1.214-0.07,1.527-0.83,2.59,0.188c1.078,0.061,2.158,0.103,3.237,0.118c-5.555,6.089-0.208,1.55-1.351,7.352
		c-0.573,2.899,0.879,7.513,4.776,5.74c-1.741,1.5-3.482,3.001-5.223,4.502c0.028,0.067,0.053,0.141,0.083,0.207
		c1.653,1.271,3.606,2.02,5.637,2.295c0.447-0.247,0.895-0.492,1.342-0.739c-0.138,0.267,0.214,0.65,0.183,0.865
		c0.861,0.016,1.727-0.052,2.578-0.202c-2.813,2.43-5.535,4.816-8.795,6.649c-2.866,1.611,1.271,4.313,0.364,5.465
		c-1.755,2.225-10.208-0.517-12.627-0.702c7.193-3.328-2.708-3.994-3.066-10.953c0.933,0.343,1.884,0.633,2.831,0.941
		c1.068-0.465,1.08,0.231,1.923,0.638c-2.312-2.229-6.418-4.488-5.69-8.371c0.752-4.01,2.303-6.761,0.629-10.835
		c7.056-0.779,1.107-9.798,1.02-13.5c-0.204-2.402,0.239-4.678,1.329-6.827c0.154,2.031,0.633,4.19,1.432,6.218
		c1.192,2.564,2.918,4.64,4.821,6.56C160.031,185.176,164.513,187.855,160.502,188.541z M151.303,180.747
		c-0.684-0.732-0.526-1.304-0.714-2.242C150.47,178.13,151.246,179.99,151.303,180.747z M154.524,149.009
		c-2.437,1.052-4.874,2.105-7.311,3.157C149.019,150.087,151.748,148.819,154.524,149.009z M152.122,155.326
		c-2.075,1.505-4.392,2.253-6.952,2.241C145.781,157.3,152.122,153.894,152.122,155.326z M150.026,166.279
		c-5.706-0.329-11.498,2.146-15.132,6.571C136.995,167.896,144.832,161.718,150.026,166.279z M143.431,215.236
		c-5.949,1.493-7.152,9.838-9.712,14.364C134.211,224.819,136.871,214.482,143.431,215.236z M111.178,288.137
		c6.284-7.731,10.787-16.773,13.954-26.185c-1.346,11.647-7.679,21.829-16.56,29.292
		C109.44,290.207,110.309,289.173,111.178,288.137z M124.979,294.047c0.221,2.229-0.529,4.064-2.248,5.502
		C123.442,297.699,124.193,295.865,124.979,294.047z M121.248,284.979c-1.68,5.386-4.829,10.217-8.997,14.009
		C113.876,296.217,117.04,284.595,121.248,284.979z M116.956,300.313c1.533-2.242,3.067-4.483,4.6-6.725
		C120.807,296.246,119.218,298.694,116.956,300.313z M122.73,374.538c6.574-7.413,8.811-17.496,14.924-25.218
		c-2.393,8.464-6.639,16.33-12.063,23.231C124.638,373.212,123.685,373.876,122.73,374.538z"/>
	<path fill="#FFFFFF" d="M297.101,89.065c0.075,0.127,0.156,0.253,0.229,0.381c0,0,0.002,0,0.004,0
		c-0.021-0.188-0.013-0.357-0.004-0.524C297.25,88.971,297.175,89.015,297.101,89.065z"/>
	<path fill="#FFFFFF" d="M315.817,143.452c-0.169-0.052-0.323-0.078-0.473-0.095c0.156,0.134,0.321,0.283,0.493,0.455
		C315.832,143.698,315.823,143.569,315.817,143.452z"/>
	<path fill="#FFFFFF" d="M63.808,318.144c0.013,0,0.026,0,0.039,0C63.833,318.147,63.821,318.142,63.808,318.144L63.808,318.144z"/>
	<path fill="#FFFFFF" d="M225.175,150.458c-1.214-5.165,1.983-9.665,5.794-13.053c-1.1,0.519-2.134,1.097-3.049,1.72
		c-3.701,3.771-4.082,8.173-2.514,12.099C225.328,150.969,225.237,150.717,225.175,150.458z"/>
	<path fill="#FFFFFF" d="M236.305,140.297c-0.033,0.038-0.061,0.075-0.094,0.114c0.111-0.036,0.229-0.051,0.344-0.078
		C236.472,140.321,236.385,140.317,236.305,140.297z"/>
	<path fill="#FFFFFF" d="M243.718,141.469c5.128,4.225,3.305,13.203-1.542,15.566c2.484-0.67,4.598-2.819,5.118-6.879
		c0.731-5.704,4.261-4.312-1.384-7.072c-1.812-0.886-0.202-3.072-1.502-4.12c-1.618-1.303-4.274,0.656-6.479,1.24
		c0.35,0.009,0.699,0.017,1.083,0.092C236.547,144.49,243.787,145.705,243.718,141.469z"/>
	<path fill="#FFFFFF" d="M228.866,382.913c-2.631-1.205-4.362-2.529-4.561-3.961c0.332,2.4-0.215,3.813-1.241,4.596
		c3.656,5.684,9.607,2.916,15.068,2.431c-3.476-0.893-6.692-1.901-9.15-3.014c0.075,0.315,0.14,0.632,0.218,0.947
		C229.089,383.578,228.977,383.246,228.866,382.913z"/>
	<path fill="#FFFFFF" d="M247.294,163.222c5.223-1.219,14.091-3.863,14.77-10.342c-1.021,0.815-2.045,1.63-3.066,2.445
		c6.642-4.46-1.844-12.666-5.725-15.589C254.68,148.464,255.37,157.48,247.294,163.222z"/>
	<path fill="#FFFFFF" d="M245.036,161.283c0.876-0.292,1.732-0.682,2.553-1.197c2.793-1.754,4.318-4.024,4.949-6.506
		C251.318,157.035,248.615,159.935,245.036,161.283z"/>
	<path fill="#FFFFFF" d="M248.461,139.225c-2.395-3.16-6.039-4.161-9.792-3.911c3.947,1.052,7.906,2.515,10.734,5.245
		C249.102,140.104,248.787,139.655,248.461,139.225z"/>
	<path fill="#FFFFFF" d="M251.096,206.759c-0.259-0.059-0.598-0.102-1.042-0.125C250.406,206.662,250.751,206.71,251.096,206.759z"
		/>
	<path fill="#FFFFFF" d="M168.002,99.258c-5.393,2.825-10.769,5.686-16.094,8.595c4.061-1.841,8.12-3.688,12.013-5.892
		C165.236,101.217,166.597,100.278,168.002,99.258z"/>
	<path fill="#FFFFFF" d="M228.705,67.164c0.05-0.123,0.107-0.243,0.133-0.366C228.803,66.921,228.765,67.042,228.705,67.164z"/>
	<path fill="#FFFFFF" d="M314.203,144.881c0.017,0.699,0.074,1.405,0.153,2.111c0.354-0.657,1.16-0.884,2.655-0.379
		c-0.036-0.013-0.085-0.458-0.141-1.209C316.42,146.162,315.596,146.161,314.203,144.881z"/>
	<path fill="#FFFFFF" d="M326.921,321.401c-4.107,0.574,2.992,9.733,4.07,11.379c5.827,8.89,12.114,17.849,12.132,28.916
		c0.021,0.015,0.038,0.034,0.061,0.048c0.023-3.137-0.474-6.102-1.309-8.944c-2.146-7.299-6.604-13.785-10.831-20.233
		C329.872,330.778,323.499,322.521,326.921,321.401z"/>
	<path fill="#FFFFFF" d="M323.215,162.18c0.025-0.105,0.046-0.209,0.068-0.313c-0.535-0.321-1.083-0.67-1.646-1.069
		c-1.677-1.186-4.236-4.672-5.893-7.926C317.189,156.72,319.659,160.131,323.215,162.18z"/>
	<path fill="#FFFFFF" d="M228.589,65.146c0.053,0.079,0.063,0.155,0.102,0.233c0.064,0.008,0.128,0.017,0.189,0.026
		C228.755,65.319,228.646,65.233,228.589,65.146z"/>
	<path fill="#FFFFFF" d="M222.786,275.62c0.206-0.608,0.423-1.104,0.672-1.521c-0.654-0.424-1.329-0.605-2.019-0.654
		C222.008,274.036,222.478,274.808,222.786,275.62z"/>
	<path fill="#FFFFFF" d="M228.648,67.299c-1.582,2.811-9.01,5.319-12.629,7.045C220.271,72.664,227.354,70.07,228.648,67.299z"/>
	<path fill="#D8D8D8" d="M311.748,195.571c0.622,0.562,1.249,1.118,1.874,1.676c-0.129-0.613-0.282-1.205-0.485-1.757
		C312.672,195.521,312.211,195.537,311.748,195.571z"/>
	<path fill="#D8D8D8" d="M349.218,216.591c-8.076-0.609-16.051,0.099-23.736,3.872c-13.023,6.397-12.765-1.162-11.961-10.3
		c-0.202,0.293-0.395,0.59-0.634,0.872c-2.236,2.634-3.056,7.091-0.677,9.975c4.912,5.957,20.117-3.071,26.236-3.756
		c3.58-0.399,7.145-0.412,10.702-0.217c0.014-0.099,0.041-0.186,0.055-0.287C349.211,216.693,349.211,216.646,349.218,216.591z"/>
	<path fill="#D8D8D8" d="M344.204,170.331c3.636,1.494,7.341,2.787,7.953,2.877c3,0.446,6.004,0.428,8.3-0.633
		C356.444,173.95,349.618,172.472,344.204,170.331z"/>
	<path fill="#D8D8D8" d="M363.615,169.536c0.01-0.02,0.016-0.038,0.028-0.057c-0.003-0.011-0.005-0.021-0.006-0.031
		C363.626,169.477,363.623,169.507,363.615,169.536z"/>
	<path fill="#D8D8D8" d="M315.989,226.494c1.549,1.779,3.092,5.493,6.238,4.481c10.664,0.312,20.564-4.91,26.822-13.454
		c0.01-0.047,0.021-0.093,0.026-0.14C337.539,217.842,326.144,221.007,315.989,226.494z"/>
	<path fill="#D8D8D8" d="M329.832,163.647c0.945-0.385,1.528-1.193,1.936-2.251C331.169,162.359,330.542,163.125,329.832,163.647z"
		/>
	<path fill="#D8D8D8" d="M309.633,219.928c0.771,4.697,3.384,8.468,6.956,10.859c-2.215-2.736-4.633-5.336-6.046-8.591
		c-0.979-2.26-0.207-5.858,0.821-9.686C310.197,214.825,309.177,217.147,309.633,219.928z"/>
	<path fill="#D8D8D8" d="M330.568,396.794c1.53-5.681-0.921-11.407-2.662-16.699c-2.056-6.241-2.936-1.639-6.612-6.141
		c-3.428-4.201-7.392-12.179-7.051-17.791c4.212,2.097,5.303,13.077,11.42,11.335c5.441-1.551,2.942-12.34,2.238-16.101
		c3.482,9.334-0.297,29.108,12.32,32.555c-0.495-2.751-1.156-5.522-1.885-8.282c-1.16-2.535-2.324-5.066-3.483-7.602
		c0.498-0.085,0.945-0.035,1.369,0.07c-0.871-2.968-1.733-5.881-2.481-8.689c-2.721-10.221-8.746-16.61-16.392-23.805
		c4.146-0.384,7.354,2.608,10.494,4.779c-1.182-4.534-5.119-7.791-5.831-12.504c1.135,0.938,2.282,1.859,3.446,2.762
		c-0.985-3.718-5.419-15.354-0.59-13.403c-0.443-0.405-0.78-0.93-1.007-1.582c-1.57,1.803-3.642,2.316-5.799,2.447
		c0.843,0,1.685,0,2.529,0c-5.603,3.224-14.015,6.26-19.09,0.73c-1.338-0.133-2.675-0.266-4.011-0.372
		c-1.073,0.511-2.15,1.019-3.226,1.526c-11.174,4.429-23.74,4.321-34.61-0.757c1.737,0.844,3.509,1.614,5.323,2.285
		c-2.934-0.876-5.753-2.08-8.437-3.535c-9.317-1.56-17.571-13.759-21.931-20.58c-4.226-6.615-5.247-14.546-9.25-21.232
		c-0.613-1.025-1.251-1.685-1.904-2.109c-0.249,0.417-0.466,0.912-0.672,1.521c-0.309-0.813-0.778-1.584-1.347-2.175
		c-1.484-0.104-3.043,0.388-4.659,0.371c-2.796,3.465-1.987,8.861-0.995,12.776c2.58,10.186,8.499,19.089,11.229,29.206
		c-4.213-2.411-6.321-7.037-8.476-11.136c-6.639,16.787,5.683,36.571,12.335,51.419c2.832-5.242,1.801-11.841,0.495-17.353
		c3.873,7.734,5.089,20.591,0.613,28.388c-1.353,2.354-3.014,2.568-4.682,1.701c0.021,4.76,0.592,9.515,1.682,14.146
		c2.458,1.112,5.675,2.121,9.15,3.014c9.956,2.563,22.021,4.193,24.347,4.635c2.327,0.439,4.756,0.858,7.22,1.207
		c5.345,0.764,10.874,1.155,16.067,0.571c0.334-0.038,0.674-0.056,1.005-0.103c3.243-0.448,4.589-1.881,4.959-3.778
		c0.616-3.174-1.505-7.65-2.086-11.025l0,0c0.011,0.007,0.019,0.012,0.028,0.019c3.669,2.794,7.913,4.182,11.962,5.82
		c3.962,1.599,7.734,3.448,10.601,7.089c0.348,0.439,0.688,0.899,1.005,1.397C316.731,397.24,326.839,410.655,330.568,396.794z
		 M250.72,383.249c-2.98-0.809-5.935-2.726-6.953-5.809C246.085,379.377,248.402,381.313,250.72,383.249z M230.529,371.431
		c1.143,2.038,2.283,4.075,3.426,6.112C231.771,376.089,230.63,374.054,230.529,371.431z M232.419,371.584
		c3.485,5.188,8.16,9.526,13.444,12.837C239.77,382.631,234.603,377.498,232.419,371.584z"/>
	<path fill="#D8D8D8" d="M259.796,318.133c0.373,0.017,0.743,0.057,1.114,0.089c-1.889-0.635-3.774-1.424-5.658-2.429
		c-7.521-4.007-13.547-10.318-18.271-17.368C242.345,307.038,250.337,314.418,259.796,318.133z"/>
	<path fill="#D8D8D8" d="M234.815,256.043c-1.772,3.283-4.157,6.388-6.94,9.021c-1.435,1.494-2.984,2.879-4.709,4.119
		c5.577-3.87,10.831-9.576,13.961-15.478C236.317,254.445,235.494,255.172,234.815,256.043z"/>
	<path fill="#D8D8D8" d="M237.93,246.675c-0.074,0.12-0.148,0.242-0.226,0.36c0.07-0.074,0.134-0.154,0.203-0.228
		C237.911,246.763,237.927,246.72,237.93,246.675z"/>
	<path fill="#D8D8D8" d="M242.198,241.943c0.275,0.022,0.56,0.061,0.854,0.139c-0.158,0.225-0.295,0.457-0.43,0.689
		c0.76-0.95,1.649-1.781,2.722-2.431c0.082-0.344,0.216-0.774,0.416-1.313C244.896,240.616,243.702,241.578,242.198,241.943z"/>
	<path fill="#D8D8D8" d="M240.079,242.087c-0.041,0.092-0.08,0.182-0.118,0.274c0.22-0.101,0.445-0.184,0.676-0.251
		C240.452,242.105,240.267,242.103,240.079,242.087z"/>
	<path fill="#D8D8D8" d="M255.165,229.807c-1.324,2.432-10.555,14.794-9.876,10.813c-2.464,6.938,10.097-11.032,11.017-10.931
		c0.541,0.06,0.758,0.637,0.807,1.432c0.113-0.524,0.243-1.046,0.352-1.57C256.697,229.637,255.93,229.721,255.165,229.807z"/>
	<path fill="#D8D8D8" d="M285.323,213.91c-0.301,0.449-0.61,0.898-0.921,1.348c0.307-0.431,0.611-0.86,0.916-1.288
		C285.32,213.949,285.322,213.93,285.323,213.91z"/>
	<path fill="#D8D8D8" d="M234.406,256.591c0.126-0.194,0.27-0.369,0.409-0.548c0.88-1.635,1.598-3.313,2.142-5.006
		c-1.176,3.296-3.174,5.484-6.071,8.876c0.742-3.223,2.074-6.313,3.879-9.092c-2.07,2.34-4.332,4.529-6.218,7.021
		c-1.598,2.105-5.634,7.525-5.489,11.041c1.689-1.111,3.308-2.394,4.817-3.818C230.314,262.519,232.419,259.653,234.406,256.591z"/>
	<path fill="#D8D8D8" d="M285.242,197.994c-3.656,1.467-7.283,3.231-10.885,5.328C278.19,201.505,281.727,199.661,285.242,197.994z"
		/>
	<path fill="#D8D8D8" d="M277.943,320.555c5.504-0.352,10.895-1.694,16.375-2.202c-1.536-0.021-3.06,0.048-4.552,0.298
		c-5.985,0.998-11.766,1.774-17.448,1.573C274.174,320.509,276.043,320.677,277.943,320.555z"/>
	<path fill="#D8D8D8" d="M285.317,213.999c-0.618,2.133-0.446,3.898-0.712,6.077C284.935,218.061,285.17,216.036,285.317,213.999z"
		/>
	<path fill="#D8D8D8" d="M296.255,188.09c-0.141,0.036-0.284,0.059-0.423,0.096c-1.509,0.595-3.027,1.225-4.53,1.896
		c-0.86,0.723-1.475,1.669-2.142,2.575c1.022-0.478,1.982-0.994,2.82-1.598c2.182-1.576,4.645-2.726,7.231-3.636
		c-0.947,0.19-1.89,0.405-2.824,0.636C295.812,188.578,294.288,189.304,296.255,188.09z"/>
	<path fill="#D8D8D8" d="M224.306,378.952c0.198,1.432,1.93,2.756,4.561,3.961c-0.161-0.484-0.323-0.964-0.485-1.446
		c-1.361-4.17-1.973-8.622-1.694-13.014c-3.074-2.067-6.035-7.401-6.967-9.393c-0.149,4.266,2.592,8.951-2.473,11.461
		c-5.978,2.963-11.638-2.983-14.212-7.722c0.458,6.305,8.013,15.392-2.333,15.926c-8.264,0.427-13.671-6.904-21.441-6.379
		c2.125,3.058-0.867,9.339,3.367,10.961c3.281,1.26,6.575-0.069,9.919,0.388c3.516,0.48,6.606,3.613,10.35,1.971
		c5.377-2.359,1.831-6.761,8.849-3.643c2.989,1.327,8.716,3.499,11.313,1.528c0.003,0,0.005-0.004,0.007-0.004
		C224.091,382.765,224.638,381.353,224.306,378.952z"/>
	<path fill="#D8D8D8" d="M311.691,318.914c-1.212,0.21-2.448,0.313-3.695,0.33C309.166,319.359,310.365,319.309,311.691,318.914z"/>
	<path fill="#D8D8D8" d="M288.695,215.693c-0.112,0.318-0.271,0.594-0.412,0.883c0.113,0.34,0.202,0.682,0.29,1.024
		C288.618,216.555,288.699,215.739,288.695,215.693z"/>
	<path fill="#D8D8D8" d="M301.098,202.437c-0.09,1.205-1.047,3.63-2.411,6.418c1.71-3.116,2.931-5.753,2.856-6.606
		C301.39,202.3,301.25,202.381,301.098,202.437z"/>
	<path fill="#D8D8D8" d="M287.763,217.478c-0.772,1.129-1.811,2.01-3.157,2.598C286.048,219.596,287.089,218.72,287.763,217.478z"/>
	<path fill="#D8D8D8" d="M238.423,233.344c0.95,1.954,0.807,3.828-0.43,5.622c1.753-0.303,3.502-0.652,5.239-1.044
		c-1.48,0.695-2.361,2.3-3.081,3.99c3.045-3.084,6.091-6.171,9.138-9.254c-0.937,2.42-1.91,4.828-2.896,7.23
		c0.45-0.883,1.05-1.645,1.727-2.357c2.518-4.805,5.226-10.976,10.877-9.814c-0.596,1.884-1.189,3.77-1.785,5.654
		c1.77-1.375,3.542-2.75,5.313-4.127c-1.794,1.91-3.334,4.323-5.767,5.508c-0.114,0.74-0.204,1.352-0.162,1.625
		c8.158-7.868,16.169-15.891,24.584-23.484c-1.243,2.518-2.391,5.089-3.669,7.592c1.511-2.763,3.006-5.532,4.489-8.307
		c-4.708,4.139-10.321,7.197-14.565,11.871c0.535-0.82,6.486-8.827,5.108-5.145c3.68-3.026,7.032-8.889,12.368-9.068
		c-2.205,3.429-4.294,6.938-6.695,10.239c0.344-0.517,0.72-0.964,1.12-1.39c2.036-2.771,5.021-7.584,7.551-7.758
		c1.037-0.071-0.313,3.863-0.762,5.519c0.154-0.204,0.394-0.313,0.577-0.65c0.063-0.113-0.047,0.403-0.313,0.854
		c1.246-1.395,2.464-2.809,3.636-4.268c-0.153,2.989-0.308,5.979-0.461,8.966c3.009-5.471,6.073-10.913,9.01-16.425
		c-0.012,0.008-0.021,0.012-0.031,0.02c-0.719,0.538-1.452,1.055-2.181,1.581c0.385-0.378,1.638-1.22,2.181-1.581
		c0.01-0.008,0.021-0.015,0.031-0.022c0.095-0.18,0.196-0.357,0.292-0.537c-5.17,4.429-5.567,3.877-9.106,3.104
		c-0.084,0.001-0.164,0.003-0.244,0.005c-0.079,0.008-0.014-0.005,0.14-0.028c-0.995-0.215-2.22-0.442-3.875-0.584
		c1.394-0.992,9.008-6.358,9.646-8.054c0.317-0.859-6.911,0.646-12.736,2.898c-1.737,1.249-3.544,2.376-5.561,2.814
		c-1.596,1.196-2.158,2.422-0.802,3.515c-1.529,0.325-3.059,0.649-4.589,0.975C269.221,223.187,251.082,231.909,238.423,233.344z"/>
	<path fill="#D8D8D8" d="M277.135,198.242c0.951-0.747,2.029-1.38,3.183-1.94c3.323-2.439,7.09-4.485,10.984-6.219
		c0.345-0.291,0.716-0.558,1.161-0.759c1.09-0.49,2.222-0.835,3.369-1.137c3.427-1.354,6.809-2.538,9.878-3.648
		c4.29-1.548,16.767-1.196,24.181-3.699c-0.426-0.031-0.851-0.063-1.277-0.093c0.985-0.188,1.972-0.375,2.958-0.563
		c3.158-1.45,4.878-3.661,3.636-7.181c3.893,6.467,1.847,7.967-5.665,9.189c-3.204,0.521-6.425,0.999-9.643,1.483
		c6.228-0.438,12.95-0.556,18.099-4.046c4.85-3.286-5.025-9.614-1.258-13.707c0.448-4.442,4.689-0.922,6.491,0.153
		c-2.166,0.069-4.329,0.018-6.491-0.153c-0.603,0.655,2.325,2.202,5.792,3.704c-2.639-1.175-4.775-2.462-5.792-3.55
		c7.808,0,14.625,5.268,22.521,4.524c1.427-0.135,2.584-1.632,3.667-2.933c-0.577-1.368-1.276-2.678-2.136-3.92
		c-1.397-1.465-2.612-3.229-3.713-4.259c-3.539-3.306-8.483-4.948-13.183-5.639c-5.152-0.757-14.177,3.637-7.817,9.119
		c-7.959,4.349-14.878,3.041-20.317-4.512c-2.208-3.064-5.65-19.552-0.418-15.098c0.149,0.018,0.304,0.043,0.473,0.095
		c-0.006-0.155-0.015-0.313-0.023-0.475c-0.144,0.246-0.384,0.323-0.775,0.121c0.195-1.479,0.321-2.966,0.406-4.455
		c-0.753-6.628-2.575-15.073-6.522-18.558c-1.139-1.005-2.36-2.729-3.516-4.846c-0.594-0.718-1.144-1.475-1.653-2.272
		c-1.571-0.579-3.182-1.018-3.243-1.587c1.357,12.498,8.066,25.886,1.668,38.07c-2.235-1.152-4.39-2.441-6.46-3.867
		c2.799,4.666,13.656,21.17,8.097,26.522c-2.539,2.443-6.236,0.861-8.582,4.197c-1.472,2.092-2.213,4.595-2.742,7.112
		c0.948,0.458,1.509,1.15,1.335,2.731c-0.8-0.101-1.362-0.335-1.733-0.683c-0.079,0.434-0.155,0.867-0.232,1.294
		c0.169-0.96-0.249-1.463-1.034-1.644c-0.313,0.867-0.818,1.01-2.014,0.04c-0.944,0.16-2.032,0.475-3.163,0.874
		c3.454,2.476-1.859,2.484-2.383,0.933c-1.367,0.591-2.685,1.24-3.784,1.849c0.665,2.518-0.638,7.909-2.062,4.42
		c-2.491,6.179-3.2,2.158-6.133,8.149c-0.649-0.747-1.296-1.495-1.945-2.241c-0.885,1.512-1.769,3.023-2.655,4.534
		c-0.905-1.531-0.441-3.939,0.451-6.075c-0.883,0.327-1.802,0.628-2.743,0.904c-2.888,1.914-6.377,2.878-9.925,2.623l1.752-0.854
		c-7.938,1.241-16.155,1.433-21.11,1.697c4.02,3.781-12.569,8.224-17.711,9.419c7.289,1.144,14.778,1.811,22.084,0.635
		c1.703-0.273,15.235-4.434,11.631-5.262c-0.345-0.049-0.689-0.098-1.042-0.125c0.444,0.023,0.783,0.065,1.042,0.125
		c1.418,0.204,2.787,0.586,4.109,1.166c-0.839,1.655-1.813,3.224-2.928,4.704c2.089-0.878,15.884-8.561,18.953-5.97
		c0.662-1.397,1.462-2.706,2.379-3.936c0.24-0.38,0.482-0.76,0.724-1.141C274.773,200.017,275.811,198.987,277.135,198.242z
		 M332.654,166.075c-0.238,0.476-0.478,0.951-0.718,1.426c-2.096-0.251-4.142-0.726-6.133-1.426
		C328.087,166.075,330.37,166.075,332.654,166.075z M318.444,182.784c-4.951,0.399,5.947-1.272,5.418-1.171
		C322.077,182.107,320.272,182.498,318.444,182.784z M309.396,125.574c0.426,4.704,0.852,9.408,1.279,14.112
		C310.286,137.229,307.604,124.382,309.396,125.574z M308.681,182.173C307.577,185.7,303.184,181.101,308.681,182.173
		L308.681,182.173z M300.248,181.714c0.527,0.509,1.056,1.019,1.582,1.528C299.295,183.772,300.3,182.7,300.248,181.714z
		 M296.618,183.955c-0.58-0.237-1.158-0.474-1.737-0.712C295.98,183.115,296.602,181.879,296.618,183.955z M282.307,187.675
		C286.621,196.917,275.829,189.179,282.307,187.675L282.307,187.675z"/>
	<path fill="#D8D8D8" d="M313.726,201.479c0.064-3.445-1.304-5.875-5.999-5.882c-2.061-0.003-3.762,0.228-5.245,0.628
		C307.659,195.505,312.486,196.785,313.726,201.479z"/>
	<path fill="#D8D8D8" d="M289.8,222.292c-0.008,0.005-0.019,0.017-0.028,0.021c-0.372,0.199-0.636,0.046-0.822-0.309
		c-0.029,0.356-0.044,0.716-0.099,1.078C289.084,222.987,289.421,222.689,289.8,222.292z"/>
	<path fill="#D8D8D8" d="M289.494,205.695c-0.263,0.208-0.521,0.417-0.799,0.626c0.544-0.192,1.06-0.35,1.558-0.493
		c-0.453,0.032-0.937,0.17-1.456,0.441C289.017,206.099,289.251,205.904,289.494,205.695z"/>
	<path fill="#D8D8D8" d="M257.813,318.345c0.415,0.217,0.832,0.425,1.251,0.633C258.645,318.774,258.228,318.563,257.813,318.345z"
		/>
	<path fill="#D8D8D8" d="M273.609,202.724c-0.288,0.452-0.574,0.903-0.861,1.354c0.147-0.068,0.29-0.136,0.437-0.204
		c0.276-0.552,0.555-1.104,0.83-1.657C273.882,202.387,273.737,202.55,273.609,202.724z"/>
	<path fill="#D8D8D8" d="M183.234,189.983c1.273,6.793,4.99,11.224,9.871,14.257C188.708,200.291,185.223,195.245,183.234,189.983z"
		/>
	<path fill="#D8D8D8" d="M271.819,207.915c0.813-0.094,1.583-0.196,2.258-0.32c-0.644-0.476,0.626-1.642,2.585-2.981
		c-0.461,0.076-0.925,0.137-1.41,0.129c4.004-2.072,8.01-4.146,12.012-6.217c-5.306,2.745-10.609,5.493-15.915,8.234
		C271.619,207.037,271.778,207.421,271.819,207.915z"/>
	<path fill="#D8D8D8" d="M193.105,204.241c6.312,5.669,14.524,9.06,23.029,7.418c0.243-0.047,0.681-0.141,1.246-0.273
		c-0.996-0.156-1.99-0.321-2.98-0.492C207.113,209.635,199.2,208.027,193.105,204.241z"/>
	<path fill="#CE3829" d="M362.592,79.484c-0.031-0.115-0.068-0.227-0.103-0.341c-0.128-0.437-0.281-0.872-0.496-1.303
		c-2.928,3.23-6.075,10.455-10.903,11.985c-0.075,0.083-0.15,0.167-0.227,0.25c0.015-0.005,0.026-0.006,0.039-0.009
		c-1.26,1.375-2.523,2.751-3.783,4.126c-3.961-3.811-1.491-9.396,0.238-14.652c0.352-3.722,0.676-7.039,0.682-7.268
		c0.119-3.338-4.331-2.881-3.832-6.805c0.158-1.229,0.844-6.804,0.837-10.06c-0.169-0.718-0.427-1.44-0.838-2.174
		c-0.222,0.254-1.924,2.728-4.22,5.981c-1.625,2.679-3.144,5.43-4.96,7.985c-0.139,0.194-0.267,0.394-0.41,0.586
		c-0.468,0.192-0.907,0.417-1.337,0.656c-2.705,3.571-5.246,6.671-6.723,7.831c-0.158,0.335-0.317,0.667-0.465,1.007
		c-0.103,0.409-0.197,0.648-0.285,0.659c0.088-0.223,0.192-0.439,0.285-0.659c0.054-0.21,0.109-0.483,0.165-0.786
		c-0.412,0.273-0.719,0.352-0.882,0.18c-0.243-0.257,3.612-24.807,3.027-34.807c-1.392-8.383-5.714,1.399-9.869,11.987
		c-3.334,8.492-6.557,17.487-8.073,18.033c-0.011,0.078-0.007,0.135,0.015,0.151c-0.042-0.033-0.071-0.084-0.109-0.119
		c-0.052,0.006-0.104,0.003-0.15-0.014c-0.31-0.105-0.481-0.495-0.57-1.049c-1.382-3.396,1.347-10.953,2.711-14.889
		c0.405-1.846,0.811-3.71,1.183-5.584c1.037-5.274,1.785-10.63,1.416-15.906c-0.02-0.188-0.024-0.375-0.045-0.563
		c-0.014-0.161-0.036-0.321-0.052-0.481c-0.385-3.157-1.12-6.24-2.29-9.135c-1.705,5.252-8.542,35.875-16.666,33.419
		c0.347-0.65,0.657-1.31,0.961-1.973c0.189-0.428,0.377-0.857,0.551-1.292c0.037-0.085,0.068-0.172,0.103-0.257
		c2.585-6.607,3.107-13.93,2.802-21.038c-0.358-5.073-1.279-10.129-2.464-14.965c-0.16-0.158-0.33-0.291-0.52-0.362
		c-0.169-0.065-0.333-0.045-0.494,0.012c-0.447,0.815-1.08,1.878-1.684,2.897c-2.482,7.766-4.163,28.216-7.836,28.667
		c-5.724,0.704-1.74-24.666-0.765-29.917c-0.129-0.239-0.258-0.437-0.386-0.597c-4.04,2.085-14.146,28.447-15.314,31.183
		c-0.373-0.343-0.745-0.724-1.119-1.135c-0.099-0.106-0.188-0.222-0.283-0.332c-4.646-5.305-9.14-15.293-11.298-22.296
		c-0.241-0.486-0.487-0.957-0.732-1.416c-0.145-0.263-0.286-0.531-0.43-0.782c-0.215,0.199-0.42,0.402-0.61,0.618
		c-0.172,0.207-0.362,0.404-0.516,0.621c-0.119,0.166-0.214,0.347-0.324,0.518c-0.248,0.408-0.493,0.819-0.686,1.258
		c-0.004,0.005-0.006,0.011-0.007,0.017c-0.993,2.278-1.251,4.922-1.1,7.464c0.01,0.159,0.034,0.312,0.045,0.47
		c0.039,0.474,0.077,0.949,0.141,1.41c0.085,0.626,0.19,1.236,0.31,1.818c-2.608-1.532-5.215-3.066-7.818-4.611
		c-0.643-0.221-1.301-0.401-1.997-0.483c1.749,0.205,1.646,6.503,1.536,9.575c0.051,0.395,0.123,0.788,0.17,1.182
		c0.966,8.1-2.307,4.077-9.119,5.338c-6.126,1.131,1.512,12.639,4.252,18.504c3.086,1.405,7.555,4.414,7.708,4.522
		c0.906,0.633,1.869,1.246,2.842,1.861c-1.95-1.348-3.9-2.699-5.854-4.047c4.055,2.412,8.109,4.822,12.164,7.233
		c-1.781-2.82-4.518-5.476-4.6-9.068c1.02,0.447,1.988,0.983,2.934,1.559c10.137,5.542,19.01,13.078,28.143,20.093
		c-0.041-0.139-0.079-0.278-0.123-0.417c-2.753-2.176-3.007-10.209-3.656-12.421c7.051,0.733,12.816,6.043,16.274,11.939
		c0.074-0.051,0.149-0.095,0.229-0.144c0.158-3.32,5.423-2.735,4.811,1.145c1.169,10.086,0.068,21.649,8.053,29.284
		c4.455,4.263,5.614,6.453,5.976,12.674c0.134,2.286,2.041,11.145,0.703,13.38c0.056,0.751,0.104,1.197,0.141,1.209
		c-1.495-0.505-2.302-0.278-2.655,0.379c0.221,1.988,0.679,3.984,1.389,5.879c1.656,3.254,4.216,6.74,5.893,7.926
		c0.563,0.399,1.11,0.749,1.646,1.069c4.903,2.928,8.557,2.43,9.282-4.098c0.384-3.47,1.576-5.553,3.285-6.633
		c7.526-5.924,26.251,9.603,30.237,14.75c0.458,0.246,0.938,0.786,1.447,1.721c0.271,0.216,0.533,0.442,0.768,0.688
		c-0.577-0.607-0.435-2.154,0.112-4.029c0.342-3.589,1.509-7.238,3.404-9.493c1.741-3.778,4.555-4.999,10.618,1.264
		c-1.563-1.612-2.296-9.394-2.94-17.433c-0.922-4.694-1.615-9.398-1.323-14.163c-0.083-0.59-0.169-1.154-0.261-1.669
		c-0.129-0.735-0.268-1.389-0.418-1.944c-2.946,0.542-2.581-4.17-2.468-6.33c0.21-4.069-1.739-4.818-5.216-5.837
		c0.262-0.724,0.53-1.455,0.788-2.191c-0.077-0.163-0.152-0.338-0.216-0.567c-0.382-1.417,1.709-4.608,1.449-6.572
		c-3.957,1.012-6.472,1.024-8.037,0.343c-0.526-0.229-0.951-0.531-1.278-0.907c-0.867-0.498-1.597-1.177-2.078-2.098
		c-0.949-1.814-0.525-5.52,1.604-6.416c0.01-0.072,0.026-0.145,0.036-0.218c-0.244,0.053-0.503,0.074-0.803,0.033
		C362.005,86.665,363.477,82.986,362.592,79.484z"/>
	<path fill="#CE3829" d="M360.101,221.45c-0.058-0.017-0.079,0.01-0.115,0.021c0.322,0.926,0.682,1.816,1.077,2.681
		c0.214,0.374,0.43,0.741,0.623,1.068C361.157,223.966,360.657,222.693,360.101,221.45z"/>
	<path fill="#CE3829" d="M287.673,40.294c0.323-1.316,0.625-3.149,0.962-5.221c-0.058-0.543-0.111-1.122-0.166-1.717
		C288.119,36.858,287.711,39.67,287.673,40.294z"/>
	<path fill="#CE3829" d="M235.341,59.919c-0.764-2.488-1.494-5.035-1.768-7.263C233.618,54.858,234.394,57.427,235.341,59.919z"/>
	<path fill="#CE3829" d="M286.09,147.581c0.716,1.444,1.429,2.888,2.145,4.332C289.294,147.911,288.58,146.468,286.09,147.581z"/>
	<path fill="#CE3829" d="M160.502,188.541c0.862,0.08,1.728,0.139,2.59,0.188C162.029,187.711,161.716,188.471,160.502,188.541z"/>
	<path fill="#CE3829" d="M293.981,88.187c-3.064-4.38-7.053-7.674-12.069-9.563c1.919,1.697,5.692,3.072,7.077,4.408
		c2.448,2.365,3.733,5.401,6.548,7.609c-0.039-0.405,0.161-0.652,0.606-0.741c0.088-0.099,0.166-0.195,0.278-0.296
		C295.603,89.642,294.783,89.334,293.981,88.187z"/>
	<path fill="#CE3829" d="M171.594,208.205c-0.447,0.247-0.895,0.493-1.342,0.739c0.504,0.069,1.015,0.117,1.524,0.125
		C171.808,208.855,171.457,208.471,171.594,208.205z"/>
	<path fill="#CE3829" d="M270.388,157.145c0.176,0.47,0.377,0.934,0.622,1.39c3.181-3.306,0.913-8.363-0.974-11.621
		c1.308,2.018,2.45,4.126,3.43,6.323c-0.665-6.235-3.028-12.442-7.67-16.812c-0.627,2.342-0.157,4.444,1.406,6.307
		c-2.641-3.434-5.579-6.821-9.277-9.16c2.403,4.583,6.163,8.227,9.027,12.495c1.038,1.546,1.576,3.116,1.952,4.673
		c0.939,2.094,1.684,4.261,2.209,6.469C270.863,157.163,270.625,157.145,270.388,157.145z"/>
	<path fill="#CE3829" d="M153.062,210.268c0.644,0.208,1.276,0.445,1.923,0.638C154.141,210.499,154.13,209.802,153.062,210.268z"/>
	<path fill="#CE3829" d="M210.799,197.558c-1.619,1.71,5.416-0.313,6.132-0.457c-0.578-0.697-1.158-1.393-1.737-2.089
		c-3.563-3.163-9.43,0.358-12.164,2.954c1.875-0.629,3.749-1.256,5.624-1.885C201.219,202,207.446,198.43,210.799,197.558z"/>
	<path fill="#CE3829" d="M300.682,88.815c0.532,0.613,0.752,1.505,0.822,2.446c0.192-0.416,0.389-0.829,0.636-1.195
		C301.673,89.326,301.182,88.973,300.682,88.815z"/>
	<path fill="#CE3829" d="M265.693,193.126c1.211-0.713,2.42-1.427,3.629-2.141c-7.888,2.244-15.776,4.484-23.663,6.725
		C252.576,197.63,259.367,195.85,265.693,193.126z"/>
	<path fill="#CE3829" d="M283.024,81.609c0.003-1.375-0.848-2.202-1.281-3.057c0.274,0.647,0.535,1.301,0.805,1.949
		C282.707,80.871,282.869,81.239,283.024,81.609z"/>
	<path fill="#CE3829" d="M154.107,178.556c0.977,2.128,2.344,4.049,4.153,5.408c0.072,0.053,0.162,0.116,0.265,0.186
		c-1.902-1.919-3.629-3.995-4.821-6.56c0.003,0.003,0.003,0.007,0.005,0.01C153.828,177.925,153.968,178.241,154.107,178.556z"/>
	<path fill="#CE3829" d="M276.327,152.268c1.142-5.024-3-9.554-5.317-13.652C272.783,143.167,274.556,147.718,276.327,152.268z"/>
	<path fill="#CE3829" d="M163.772,205.25c0.067-0.246,0.105-0.506,0.127-0.774c-0.376-1.462-0.618-3.078-0.816-4.708
		c-0.78-2.628-1.737-5.393-1.174-7.513c-0.028-0.096-0.048-0.208-0.077-0.3c0.114-0.131,0.229-0.262,0.343-0.392
		c0.289-0.608,0.724-1.152,1.394-1.595c-9.279-1.38-1.665-0.392-5.179-5.326c-1.547-2.175-3.908-3.461-5.758-5.32
		c0.555,0.986,1.107,1.882,1.579,2.743c1.368,2.43,1.634,3.561,0.771,7.676c-0.166,0.792-1.331,1.492-2.27,2.213
		c-1.716,3.448,2.011,1.84,0.765,5.586c-1.374,4.134-2.168,5.585,0.603,9.324c0.8,1.08,1.256,1.978,1.421,2.684
		c0.429,0.458,0.818,0.909,1.119,1.36c0.313,0.077-0.566,0.168-1.682,0.25c-0.357,0.162-0.859,0.198-1.496,0.097
		c-0.868,0.051-1.635,0.09-1.89,0.104c0.068,0.106,0.154,0.223,0.241,0.34c3.939,3.879,5.784,8.028,10.541,8.175
		c0.462-0.025,0.927-0.024,1.389-0.052c-2.073-4.331,4.596-8.124,7.768-9.985c-0.212,0.054-0.45,0.094-0.694,0.125
		c-1.166,0.206-2.156,0.165-2.98-0.1C165.334,209.404,163.024,207.995,163.772,205.25z"/>
	<path fill="#CE3829" d="M150.589,178.504c0.188,0.938,0.03,1.51,0.714,2.242C151.246,179.99,150.47,178.13,150.589,178.504z"/>
	<path fill="#CE3829" d="M259.096,79.568c-0.422-0.436-0.861-0.847-1.309-1.25c-0.081-0.057-0.165-0.114-0.248-0.172
		C258.082,78.6,258.613,79.067,259.096,79.568z"/>
	<path fill="#CE3829" d="M279.336,218.686c-0.4,0.426-0.776,0.873-1.12,1.39C278.539,219.738,278.92,219.25,279.336,218.686z"/>
	<path fill="#CE3829" d="M248.12,237.531c-0.677,0.713-1.276,1.475-1.727,2.357c-0.18,0.44-0.35,0.888-0.53,1.329
		C246.647,240.262,247.374,238.954,248.12,237.531z"/>
	<path fill="#CE3829" d="M315.019,143.099c0.392,0.202,0.632,0.125,0.775-0.121c-0.07-1.282-0.19-2.752-0.369-4.334
		C315.34,140.132,315.214,141.619,315.019,143.099z"/>
	<path fill="#CE3829" d="M286.702,215.796c-0.184,0.338-0.423,0.446-0.577,0.65c-0.087,0.326-0.145,0.574-0.138,0.675
		c0.14-0.153,0.265-0.317,0.402-0.472C286.655,216.199,286.765,215.683,286.702,215.796z"/>
	<path fill="#CE3829" d="M294.881,183.243c0.579,0.238,1.157,0.476,1.737,0.712C296.602,181.879,295.98,183.115,294.881,183.243z"/>
	<path fill="#CE3829" d="M257.813,318.345c-0.13-0.07-0.267-0.129-0.397-0.201l0,0c-0.292-0.027-0.582-0.074-0.872-0.122
		c2.684,1.455,5.503,2.659,8.437,3.535c-1.814-0.671-3.586-1.441-5.323-2.285c-0.199-0.093-0.395-0.197-0.593-0.294
		C258.645,318.77,258.228,318.562,257.813,318.345z"/>
	<path fill="#CE3829" d="M256.596,236.377c-0.042-0.273,0.048-0.885,0.162-1.625c-0.174,0.085-0.339,0.179-0.52,0.25
		c0.312-1.289,0.59-2.586,0.874-3.881c-0.049-0.795-0.266-1.372-0.807-1.432c-0.92-0.102-13.48,17.869-11.017,10.931
		c0.016-0.087,0.031-0.177,0.056-0.279c-1.072,0.649-1.962,1.48-2.722,2.431c-1.364,2.315-1.726,5.049-2.765,7.506
		c-0.604,1.425-1.652,2.439-2.731,3.429c-3.13,5.901-8.384,11.607-13.961,15.478c-0.591,0.425-1.203,0.834-1.839,1.224
		c9.11,5.102,9.65,17.392,14.239,25.69c0.439,0.79,0.932,1.558,1.414,2.327c4.725,7.05,10.751,13.361,18.271,17.368
		c1.884,1.005,3.77,1.794,5.658,2.429c3.836,0.334,7.595,1.418,11.408,2.002c5.683,0.201,11.463-0.575,17.448-1.573
		c1.492-0.25,3.016-0.318,4.552-0.298c1.306-0.121,2.616-0.209,3.936-0.209c-0.254,0.119-0.506,0.24-0.762,0.358
		c1.336,0.106,2.673,0.239,4.011,0.372c-0.217-0.235-0.44-0.462-0.644-0.73c1.249-0.796-1.405-2.243,1.791,0
		c-0.596,0-1.194,0-1.791,0c2.77,0.086,4.908,0.882,7.137,1.101c1.247-0.017,2.483-0.12,3.695-0.33
		c0.601-0.183,1.231-0.429,1.895-0.771c6.273-4.198,13.589-7.584,18.449-13.555c1.857-2.282,3.569-4.646,5.262-7.024
		c0.165-0.386,0.332-0.77,0.474-1.164c0.845-1.049,1.706-2.089,2.578-3.122c1.969-2.735,4.001-5.439,6.283-8.005
		c7.819-8.784,15.816-18.8,18.399-30.266c1.045-5.545,0.933-11.286-0.399-16.954c-3.011-5.128-6.406-13.771-6.938-17.909
		c-1.087-1.287-2.281-2.069-3.584-2.025c-5.197,1.434-9.021,8.048-13.092,10.872c-0.047,0.031-0.092,0.057-0.136,0.088
		c-0.477,0.396-0.96,0.784-1.479,1.128c-1.289,0.852-2.748,1.499-4.283,1.992c-3.422,1.668-6.421,3.373-7.969,7.896
		c-0.309,0.9-0.634,1.545-0.963,1.997c0.063,0,0.115-0.01,0.18-0.01c-3.476,9.772-0.888,20.541-2.21,30.636
		c-1.075,8.222-3.597,16.169-7.123,23.655c-5.442,11.553-13.928,21.771-27.728,21.771c14.943-6.638,24.825-20.965,30.018-36.028
		c3.362-9.757,4.422-20.072,2.303-30.213c-0.824-3.941-1.444-8.166,2.167-9.43c-1.845-1.469-3.499-6.053-3.914-6.862
		c-0.894-1.743-2.062-3.304-3.291-4.823c-3.572-2.392-6.186-6.162-6.956-10.859c-0.456-2.78,0.564-5.103,1.731-7.417
		c1.026-3.815,2.302-7.854,2.361-11.032c-1.239-4.694-6.066-5.974-11.244-5.254c-5.51,1.485-7.887,5.425-12.987,9.47
		c-0.243,0.208-0.478,0.404-0.697,0.574c0.52-0.271,1.003-0.409,1.456-0.441c3.729-1.067,6.467-1.064,10.864-3.786
		c0.013,0.103-0.011,0.258-0.02,0.395c0.152-0.055,0.292-0.136,0.445-0.188c0.074,0.853-1.146,3.491-2.856,6.606
		c-2.701,5.521-6.93,12.349-8.887,13.437c-0.379,0.397-0.716,0.695-0.949,0.79c0.055-0.362,0.069-0.722,0.099-1.078
		c-0.444-0.844-0.447-2.867-0.376-4.403c-0.088-0.343-0.177-0.685-0.29-1.024c-0.157,0.316-0.329,0.618-0.521,0.901
		c-0.674,1.242-1.715,2.118-3.157,2.598c0.266-2.179,0.094-3.943,0.712-6.077c0-0.01,0-0.02,0.001-0.029
		c-0.305,0.428-0.609,0.857-0.916,1.288c-2.37,3.414-5.043,6.735-8.792,8.689c0.644-1.149,1.269-2.307,1.9-3.462
		c1.278-2.503,2.426-5.074,3.669-7.592C272.765,220.486,264.754,228.509,256.596,236.377z"/>
	<path fill="#CE3829" d="M301.83,183.243c-0.526-0.51-1.055-1.019-1.582-1.528C300.3,182.7,299.295,183.772,301.83,183.243z"/>
	<path fill="#CE3829" d="M298.574,204.923L298.574,204.923c-0.01,0.005-0.021,0.012-0.031,0.02
		C298.554,204.935,298.563,204.931,298.574,204.923z"/>
	<path fill="#CE3829" d="M289.516,207.493c0.08-0.002,0.16-0.004,0.244-0.005c-0.032-0.008-0.069-0.016-0.104-0.022
		C289.502,207.487,289.437,207.501,289.516,207.493z"/>
	<path fill="#CE3829" d="M298.543,204.943c-0.543,0.361-1.796,1.203-2.181,1.581C297.091,205.998,297.824,205.48,298.543,204.943z"
		/>
	<path fill="#CE3829" d="M282.307,187.675C275.829,189.179,286.621,196.917,282.307,187.675L282.307,187.675z"/>
	<path fill="#CE3829" d="M308.681,182.173C303.184,181.101,307.577,185.7,308.681,182.173L308.681,182.173z"/>
	<path fill="#CE3829" d="M290.806,185.115c0.011-0.032,0.024-0.055,0.035-0.088c-1.15-0.413-1.492-1.101-2.606-0.357
		c0.2,0.187,0.388,0.347,0.558,0.485C289.987,186.125,290.492,185.981,290.806,185.115z"/>
	<path fill="#CE3829" d="M264.375,198.501c1.713-1.137,3.215-2.605,4.385-4.355l-12.558,6.125l-1.752,0.854
		C257.998,201.379,261.487,200.415,264.375,198.501z"/>
	<path fill="#CE3829" d="M301.177,103.944c0.007,1.95,0.195,3.859,0.813,5.587c0.45,1.265,1.068,2.378,1.744,3.437
		c0.51,0.797,1.06,1.554,1.653,2.272C303.661,112.083,302.085,108.024,301.177,103.944z"/>
	<path fill="#CE3829" d="M293.806,186.146c0.174-1.582-0.387-2.273-1.335-2.731c-0.248-0.119-0.516-0.226-0.811-0.325
		c-0.267,1.043-0.156,1.843,0.412,2.374C292.443,185.811,293.006,186.045,293.806,186.146z"/>
	<path fill="#CE3829" d="M236.957,251.037c0.451-1.409,0.779-2.823,0.95-4.229c-0.069,0.073-0.133,0.153-0.203,0.228
		c-1.086,1.171-2.068,2.441-2.939,3.786c-1.805,2.779-3.137,5.869-3.879,9.092C233.783,256.521,235.781,254.333,236.957,251.037z"/>
	<path fill="#CE3829" d="M285.629,186.028c-0.341-0.243-0.757-0.508-1.276-0.8c-1.007,0.697-1.258,1.281-1.106,1.733
		C283.77,188.513,289.083,188.504,285.629,186.028z"/>
	<path fill="#CE3829" d="M266.667,203.671c0.887-1.511,1.771-3.022,2.655-4.534c0.649,0.747,1.296,1.494,1.945,2.241
		c2.933-5.991,3.642-1.97,6.133-8.149c1.424,3.489,2.727-1.902,2.062-4.42c-0.078-0.307-0.183-0.579-0.325-0.778
		c-2.331,3.45-7.106,2.279-8.229,6.981c0.641-4.007-2.234-1.126-3.79,2.584C266.226,199.732,265.762,202.14,266.667,203.671z"/>
	<path fill="#FFCC33" d="M401.168,220.524c0.189-0.423,0.181-0.896,0.012-1.412c-25.345-20.362-55.83-25.781-88.043-23.623
		c0.203,0.552,0.356,1.145,0.485,1.757c0.704,0.63,1.404,1.264,2.113,1.89c-0.028,3.903,0.017,7.769-2.215,11.026
		c-0.804,9.138-1.063,16.697,11.961,10.3c7.686-3.773,15.66-4.481,23.736-3.872c6.112,0.459,12.282,1.671,18.434,2.888
		c10.723,1.875,21.433,3.823,32.256,2.279c0.102-0.055,0.203-0.11,0.295-0.171C400.635,221.301,400.975,220.954,401.168,220.524z"/>
	<path fill="#FFCC33" d="M276.662,204.613c3.744-2.561,10.051-5.768,10.602-6.088c-4.002,2.072-8.008,4.145-12.012,6.217
		C275.737,204.75,276.201,204.688,276.662,204.613z"/>
	<path fill="#FFCC33" d="M277.129,204.539c2.017-0.438,3.823-1.565,5.561-2.814C280.465,202.584,278.444,203.551,277.129,204.539z"
		/>
	<path fill="#FFCC33" d="M277.135,198.242c0.477-0.268,0.986-0.501,1.525-0.708c0.526-0.432,1.099-0.826,1.657-1.232
		C279.164,196.861,278.086,197.495,277.135,198.242z"/>
	<path fill="#FFCC33" d="M368.303,168.296c-0.234-0.246-0.497-0.472-0.768-0.688c0.321,0.583,0.651,1.318,1.001,2.238
		c-0.419-1.777-0.298-4.188,2.299-3.771c-1.268,6.847-3.499,4.854-6.479,0.988c-0.147,0.915-0.381,1.725-0.712,2.416
		c-0.013,0.019-0.019,0.037-0.028,0.057c-0.453,1.536-1.593,2.502-3.158,3.039c-2.296,1.061-5.3,1.079-8.3,0.633
		c-0.612-0.09-4.317-1.383-7.953-2.877c-0.579-0.229-1.134-0.465-1.672-0.706c-3.467-1.501-6.395-3.048-5.792-3.704
		c-3.768,4.093,6.107,10.42,1.258,13.707c-5.148,3.49-11.871,3.608-18.099,4.046c-5.806,0.873-11.61,1.774-17.329,3.057
		c-1.113,0.25-2.237,0.466-3.358,0.692c-2.587,0.91-5.05,2.06-7.231,3.636c-0.838,0.604-1.798,1.12-2.82,1.598
		c-0.63,0.856-1.303,1.676-2.274,2.233c-2.116,1.212-5.479,1.591-8.226,2.644c-1.734,1.417-3.3,2.973-4.646,4.682
		c-0.275,0.552-0.554,1.104-0.83,1.657c0.395-0.183,0.783-0.367,1.173-0.551c3.602-2.097,7.229-3.861,10.885-5.328
		c6.692-3.175,13.338-5.703,21.976-6.17c13.749-0.744,27.581-0.443,41.256,1.208c12.5,1.508,25.064,4.547,36.065,10.859
		c9.794,5.619,17.235,14.208,25.449,21.789c1.172,0.238,1.852-0.651,2.203-2.169c0.478-11.317-1.488-22.599-5.754-32.935
		c-2.658-5.878-6.145-11.402-10.121-16.507c-0.263-0.338-0.524-0.68-0.791-1.015c-0.842-1.055-1.983-2.705-3.31-4.594
		c-0.757-0.808-1.519-1.612-2.317-2.386c0.133-0.018,0.264-0.018,0.396-0.028c-5.126-0.924-7.771-10.033-12.612-11.627
		c-8.498-2.795-3.015,12.604-9.044,11.656c0.594-2.016,1.072-4.268,1.6-6.384c-0.76,1.548-1.406,3.152-1.822,4.576
		C367.868,166.142,367.726,167.689,368.303,168.296z"/>
	<path fill="#FFCC33" d="M296.388,188.06c-0.043,0.011-0.089,0.02-0.133,0.03C294.288,189.304,295.812,188.578,296.388,188.06z"/>
	<path fill="#FFCC33" d="M318.444,182.784c1.828-0.287,3.633-0.677,5.418-1.171C324.392,181.512,313.493,183.184,318.444,182.784z"
		/>
	<path fill="#FFCC33" d="M328.613,180.747c0.427,0.031,0.852,0.062,1.277,0.093c0.593-0.201,1.158-0.417,1.681-0.657
		C330.585,180.372,329.599,180.559,328.613,180.747z"/>
	<path fill="#CC9933" d="M225.175,150.458c0.063,0.259,0.153,0.511,0.231,0.766c2.828,7.086,12.013,12.606,19.63,10.06
		c3.579-1.349,6.282-4.248,7.502-7.703c1.069-4.206-0.486-9.024-3.135-13.021c-2.828-2.729-6.787-4.192-10.734-5.245
		c-2.645,0.176-5.336,0.979-7.7,2.091C227.158,140.793,223.961,145.293,225.175,150.458z M236.211,140.411
		c0.033-0.039,0.061-0.076,0.094-0.114c0.08,0.02,0.167,0.024,0.25,0.036c0.428-0.102,0.887-0.142,1.375-0.128
		c2.204-0.584,4.86-2.543,6.479-1.24c1.3,1.047-0.31,3.233,1.502,4.12c5.645,2.76,2.115,1.368,1.384,7.072
		c-0.521,4.06-2.634,6.209-5.118,6.879c-1.887,0.919-4.232,0.839-6.804-0.915C230.856,153.039,230.765,142.137,236.211,140.411z"/>
	<path d="M315.144,36.819c0.006,1.599-0.005,3.236-0.03,4.862C315.203,40.06,315.215,38.436,315.144,36.819z"/>
	<path d="M244.228,47.12c-9.475-2.974-11.277,0.431-10.654,5.536c0.273,2.228,1.004,4.775,1.768,7.263
		c0.729,2.374,1.48,4.689,1.885,6.611c-2.782-0.375-5.563-0.751-8.346-1.125c-0.062-0.009-0.125-0.018-0.189-0.026
		c-0.051-0.007-0.102-0.013-0.153-0.021c0.319,0.481,0.399,0.962,0.301,1.44c-0.025,0.123-0.083,0.243-0.133,0.366
		c-0.018,0.045-0.036,0.089-0.057,0.135c-1.295,2.771-8.378,5.365-12.629,7.045c-0.781,0.31-1.473,0.59-2.006,0.833
		c-9.774,4.445-19.406,9.333-28.705,14.708c-6.163,0.513-12.031,5.537-17.307,9.374c-1.405,1.021-2.766,1.959-4.082,2.703
		c-3.893,2.204-7.952,4.05-12.013,5.892c-6.003,2.727-12.004,5.443-17.439,9.297c-17.148,12.156-28.644,30.63-38.265,48.925
		c0.409-0.023,0.816-0.151,1.217-0.323c4.246-1.813,7.987-11.219,9.793-14.326c5.768-9.931,14.65-19.434,22.788-27.477
		c16.279-16.085,38.775-22.871,58.374-33.753c8.429-0.799,17.84-9.315,24.968-12.263c3.213-1.328,22.985-7.119,17.799-11.148
		c3.679,1.239,7.357,2.479,11.038,3.719c-0.015-0.595-0.369-1.537-0.911-2.692c-2.74-5.865-10.378-17.373-4.252-18.504
		c6.813-1.262,10.085,2.761,9.119-5.338c-0.047-0.394-0.119-0.787-0.17-1.182c-0.453-3.48-1.043-6.952-1.739-10.39
		c0.729,0.439,1.469,0.864,2.2,1.299c2.604,1.544,5.21,3.079,7.818,4.611c-0.119-0.582-0.225-1.192-0.31-1.818
		c-0.063-0.459-0.102-0.935-0.141-1.41c-0.011-0.158-0.035-0.311-0.045-0.47c-0.156-2.542,0.105-5.198,1.1-7.464
		c0.001-0.005,0.003-0.011,0.007-0.017c0.194-0.44,0.434-0.852,0.686-1.258c0.11-0.171,0.205-0.352,0.324-0.518
		c0.158-0.217,0.338-0.417,0.516-0.621c0.19-0.215,0.396-0.419,0.61-0.618c0.147-0.139,0.262-0.3,0.422-0.429
		c0.103,0.413,0.223,0.852,0.346,1.299c0.12,0.427,0.254,0.873,0.395,1.327c2.158,7.002,6.651,16.991,11.298,22.296
		c0.095,0.108,0.189,0.229,0.283,0.332c0.374,0.411,0.746,0.792,1.119,1.135c1.168-2.735,11.274-29.098,15.314-31.183
		c0.19-0.099,0.369-0.162,0.532-0.147c-0.036,0.16-0.084,0.416-0.146,0.744c-0.976,5.251-4.959,30.621,0.765,29.917
		c3.673-0.451,5.354-20.9,7.836-28.667c0.517-1.619,1.07-2.678,1.684-2.897c0.161-0.057,0.325-0.077,0.494-0.012
		c0.189,0.072,0.359,0.205,0.52,0.362c1.804,1.757,1.99,8.361,2.157,10.256c0.135,1.551,0.24,3.125,0.307,4.708
		c0.306,7.108-0.217,14.431-2.802,21.038c-0.033,0.085-0.065,0.171-0.103,0.257c-0.174,0.435-0.361,0.864-0.551,1.292
		c-0.301,0.665-0.616,1.324-0.961,1.973c8.124,2.456,14.961-28.167,16.666-33.419c1.17,2.895,1.905,5.978,2.29,9.135
		c0.021,0.16,0.034,0.321,0.052,0.481c0.021,0.188,0.025,0.375,0.045,0.563c0.074,0.779,0.153,1.557,0.189,2.342
		c-0.037-8.405-0.601-15.743-2.427-14.569c-5.309,3.415-7.791,14.841-9.779,21.507c-0.186,0.617-0.367,1.208-0.545,1.733
		c0.017-0.35,0.06-1.049,0.109-1.985c0.421-7.679,1.488-32.336-5.646-29.27c-5.24,2.254-6.981,13.247-8.221,20.839
		c-0.337,2.071-0.639,3.905-0.962,5.221c0.038-0.624,0.446-3.436,0.796-6.938c0.815-8.134,1.327-20.014-3.803-17.034
		c-3.926,2.281-6.832,8.338-9.254,14.352c-1.816,4.519-3.364,9.012-4.862,11.861c-3.105-2.984-6.022-6.871-7.253-11.049
		c-0.423-1.433-0.725-3.441-1.268-5.296c-0.482-1.644-1.153-3.168-2.292-4.051c-3.444-2.672-5.455-1.132-6.736,1.61
		c-1.315,2.809-1.862,6.879-2.383,9.005C237.28,26.833,242.677,38.552,244.228,47.12z"/>
	<path d="M312.916,54.275c-0.124,0.423-0.322,1.005-0.561,1.691c-1.364,3.937-4.093,11.493-2.711,14.889
		c0.173,0.424,0.408,0.784,0.721,1.063c0.038,0.035,0.067,0.086,0.109,0.119c-0.021-0.017-0.025-0.073-0.015-0.151
		c0.136-1.295,4.293-10.793,7.667-18.333c1.977-4.411,3.682-8.151,4.157-9.171c4.209-9.067,5.803-7.891,6.118-2.515
		c0.585,10-3.271,34.55-3.027,34.807c0.163,0.172,0.47,0.094,0.882-0.18c0.094-0.063,0.196-0.139,0.3-0.221
		c1.477-1.16,4.018-4.26,6.723-7.831c0.42-0.554,0.841-1.117,1.265-1.687c1.909-2.568,3.822-5.247,5.442-7.54
		c2.296-3.253,3.998-5.727,4.22-5.981c0.622-0.699,0.831,0.397,0.838,2.174c0.007,3.256-0.679,8.831-0.837,10.06
		c-0.499,3.924,3.951,3.467,3.832,6.805c-0.006,0.229-0.33,3.545-0.682,7.268c-0.441,4.667-0.931,9.962-0.911,10.614
		c-0.133-0.032-0.267-0.048-0.399-0.087c-0.076,1.487,0.283,2.862,1.072,4.126c1.26-1.375,2.523-2.751,3.783-4.126
		c-0.013,0.003-0.024,0.004-0.039,0.009c-1.45,0.417-2.898,0.437-4.346,0.095c2.083-1.605,2.978-4.607,3.229-8.159
		c0.526-7.562-1.879-17.609-2.071-22.011c-0.175-3.96-3.048-15.626-7.532-6.349c-2.041,4.215-4.433,8.072-7.281,11.621
		c-1.691,2.104-3.541,4.1-5.574,5.996c0.261-0.897,1.004-4.584,1.731-9.299c1.796-11.645,3.504-29.594-2.361-27.511
		c-4.877,1.732-7.922,10.894-10.18,17.943c-0.808,2.528-1.52,4.792-2.173,6.333c0.11-0.562,0.323-3.5,0.507-7.478
		c0.129-2.824,0.244-6.168,0.302-9.576c-0.169,3.022-0.615,6.022-1.262,8.918C313.573,51.845,313.27,53.077,312.916,54.275z"/>
	<path d="M351.09,89.825c4.828-1.531,7.976-8.755,10.903-11.985c0.215,0.431,0.368,0.866,0.496,1.303
		c0.034,0.114,0.073,0.227,0.103,0.341c0.885,3.502-0.587,7.181-1.315,10.583c0.3,0.042,0.559,0.021,0.803-0.033
		c3.104-0.67,1.903-8.467,2.06-10.412c0.647-6.65-6.597,0.273-11.545,5.641c-2.057,2.232-3.719,4.197-4.248,4.803
		C349.321,90.212,350.231,90.099,351.09,89.825z"/>
	<polygon points="297.333,89.454 297.333,89.446 297.329,89.446 	"/>
	<path d="M280.826,77.126c0.649,2.212,0.903,10.245,3.656,12.421c0.332,0.262,0.697,0.448,1.105,0.52c-0.328,0-0.654,0-0.982,0
		c-0.646,0-1.294,0-1.939,0c1.734,1.802,3.222,4.434,5.928,4.94c-0.699-1.646-1.397-3.293-2.096-4.94
		c-1.313-3.19-2.621-6.381-3.95-9.565c-0.27-0.648-0.53-1.301-0.805-1.949c0.059,0.021,0.112,0.048,0.169,0.07
		c5.017,1.889,9.005,5.184,12.069,9.563c0.802,1.147,1.621,1.455,2.44,1.417c0.303-0.014,0.605-0.072,0.907-0.158
		c-0.072-0.127-0.153-0.253-0.229-0.381C293.643,83.169,287.877,77.859,280.826,77.126z"/>
	<path d="M302.14,90.066c0.612-3.879-4.652-4.465-4.811-1.145c-0.009,0.167-0.017,0.336,0.004,0.524
		c1.147-0.327,2.279-0.965,3.349-0.631C301.182,88.973,301.673,89.326,302.14,90.066z"/>
	<path d="M277.4,87.365c1.255,2.597,4.847,2.552,7.205,2.701c-4.258-2.972-8.518-5.944-12.776-8.916
		C273.936,82.999,275.793,85.07,277.4,87.365z"/>
	<path d="M295.537,90.641c0.058,0.561,0.551,1.41,1.542,2.583c0.324-1.052,0.647-2.105,0.971-3.158
		c-0.864-0.205-1.483-0.25-1.906-0.167C295.698,89.988,295.498,90.235,295.537,90.641z"/>
	<path d="M305.387,115.24c1.155,2.117,2.377,3.841,3.516,4.846c3.947,3.485,5.77,11.93,6.522,18.558
		c0.179,1.582,0.299,3.052,0.369,4.334c0.009,0.161,0.018,0.32,0.023,0.475c0.006,0.117,0.015,0.246,0.021,0.359
		c-0.172-0.172-0.337-0.321-0.493-0.455c-5.232-4.454-1.79,12.034,0.418,15.098c5.439,7.553,12.358,8.861,20.317,4.512
		c-6.359-5.482,2.665-9.876,7.817-9.119c4.699,0.691,9.644,2.333,13.183,5.639c1.101,1.029,2.315,2.794,3.713,4.259
		c1.091,1.144,2.295,2.091,3.646,2.368c-0.164,0.119-0.329,0.259-0.494,0.417c0.139,0.184,0.275,0.357,0.41,0.533
		c2.98,3.866,5.212,5.859,6.479-0.988c-2.597-0.417-2.718,1.993-2.299,3.771c-0.35-0.92-0.68-1.655-1.001-2.238
		c-0.509-0.936-0.989-1.476-1.447-1.721c-3.986-5.147-22.711-20.674-30.237-14.75c-0.874,0.687-1.604,1.649-2.136,2.967
		c-0.982,2.439-1.173,5.292-1.947,7.292c-0.407,1.058-0.99,1.867-1.936,2.251c-1.04,0.424-2.516,0.343-4.732-0.538
		c-0.664-0.263-1.283-0.583-1.885-0.929c-3.556-2.049-6.025-5.46-7.47-9.308c-0.71-1.895-1.168-3.891-1.389-5.879
		c-0.079-0.706-0.137-1.413-0.153-2.111c1.393,1.279,2.217,1.28,2.668,0.523c1.338-2.235-0.569-11.094-0.703-13.38
		c-0.361-6.221-1.521-8.411-5.976-12.674c-7.984-7.635-6.884-19.198-8.053-29.284c-0.247,0.366-0.443,0.779-0.636,1.195
		c-1.517,3.28-1.375,7.971-0.327,12.683C302.085,108.024,303.661,112.083,305.387,115.24z"/>
	<path d="M414.061,209.929c-0.606-7.182-2.721-14.249-5.347-20.934c-2.21-5.616-6.964-18.426-14.017-22.024
		c-0.895-0.457-1.827-0.765-2.794-0.891c0.032-0.004,0.06,0,0.092-0.005c-6.102-5.943-5.557-9.986-7.128-17.988
		c-0.855-4.372-2.425-8.576-3.037-13.001c-0.196-1.412-0.138-2.938-0.041-4.492c0.231-3.708,0.689-7.584-1.507-10.507
		c-3.47-4.62-0.823-11.5-7.299-13.464c4.714-8.223-3.094-10.561-9.917-10.443c0.12-2.038,0.239-4.075,0.358-6.113
		c-0.525-0.063-0.981,0.016-1.382,0.185c-2.129,0.896-2.553,4.602-1.604,6.416c0.481,0.921,1.211,1.601,2.078,2.098
		c0.288,0.166,0.607,0.286,0.93,0.412c2.664,1.051,6.192,0.755,8.514-0.043c0.159,2.537-0.536,4.968-1.361,7.335
		c-0.258,0.736-0.526,1.467-0.788,2.191c3.477,1.019,5.426,1.768,5.216,5.837c-0.113,2.16-0.479,6.872,2.468,6.33
		c0.344-0.063,0.721-0.181,1.161-0.399c-0.19,1.003-0.311,2.003-0.401,3c-0.031,0.337-0.06,0.676-0.081,1.014
		c-0.292,4.765,0.401,9.469,1.323,14.163c1.139,5.793,2.604,11.572,2.94,17.433c-6.063-6.263-8.877-5.042-10.618-1.264
		c-0.635,1.378-1.126,3.097-1.582,4.917c-0.527,2.117-1.006,4.369-1.6,6.384c6.029,0.948,0.546-14.451,9.044-11.656
		c4.842,1.594,7.486,10.703,12.612,11.627c-0.132,0.01-0.263,0.011-0.396,0.028c0.799,0.774,1.561,1.578,2.317,2.386
		c1.355,1.442,2.649,2.932,3.868,4.471c4.284,5.392,7.75,11.339,10.354,17.645c4.266,10.336,6.231,21.618,5.754,32.935
		c-0.057,1.317-0.138,2.635-0.261,3.952c-0.658-0.583-1.297-1.188-1.942-1.783c-8.214-7.581-15.655-16.17-25.449-21.789
		c-11.001-6.312-23.565-9.351-36.065-10.859c-13.675-1.651-27.507-1.953-41.256-1.208c-8.638,0.467-15.283,2.996-21.976,6.17
		c-3.516,1.667-7.052,3.511-10.885,5.328c-0.39,0.184-0.778,0.368-1.173,0.551c-0.146,0.068-0.289,0.136-0.437,0.204
		c0.287-0.45,0.573-0.901,0.861-1.354c-0.917,1.229-1.717,2.539-2.379,3.936c-0.038,0.075-0.082,0.145-0.117,0.221
		c0.076-0.04,0.155-0.081,0.235-0.121c5.306-2.741,10.609-5.49,15.915-8.234c-0.551,0.32-6.857,3.527-10.602,6.088
		c-1.959,1.339-3.229,2.505-2.585,2.981c-0.675,0.125-1.445,0.226-2.258,0.32c-4.79,0.557-11.308,0.833-12.055,3.654
		c3.99-0.846,7.982-1.693,11.974-2.541c1.53-0.326,3.06-0.649,4.589-0.975c-1.356-1.093-0.794-2.318,0.802-3.515
		c1.315-0.987,3.336-1.955,5.561-2.814c5.825-2.252,13.054-3.757,12.736-2.898c-0.638,1.695-8.252,7.062-9.646,8.054
		c1.655,0.142,2.88,0.37,3.875,0.584c0.035,0.006,0.072,0.015,0.104,0.022c3.539,0.774,3.937,1.326,9.106-3.104
		c-0.096,0.18-0.197,0.357-0.292,0.537v0.002c-2.937,5.512-6.001,10.954-9.01,16.425c0.153-2.987,0.308-5.977,0.461-8.966
		c-1.172,1.458-2.39,2.873-3.636,4.268c-0.138,0.154-0.263,0.318-0.402,0.472c-0.007-0.101,0.051-0.349,0.138-0.675
		c0.449-1.656,1.799-5.59,0.762-5.519c-2.53,0.174-5.515,4.987-7.551,7.758c-0.416,0.564-0.797,1.053-1.12,1.39
		c2.401-3.302,4.49-6.81,6.695-10.239c-5.336,0.18-8.688,6.042-12.368,9.068c1.378-3.683-4.573,4.324-5.108,5.145
		c4.244-4.674,9.857-7.731,14.565-11.871c-1.483,2.775-2.979,5.544-4.489,8.307c-0.632,1.155-1.257,2.313-1.9,3.462
		c3.749-1.954,6.422-5.275,8.792-8.689c0.311-0.449,0.62-0.898,0.921-1.348c-0.001,0.02-0.003,0.039-0.005,0.06
		c-0.001,0.009-0.001,0.019-0.001,0.029c-0.147,2.038-0.383,4.062-0.712,6.077c1.347-0.588,2.385-1.469,3.157-2.598
		c0.191-0.283,0.363-0.585,0.521-0.901c0.142-0.289,0.3-0.564,0.412-0.883c0.004,0.046-0.077,0.861-0.122,1.907
		c-0.071,1.536-0.068,3.56,0.376,4.403c0.187,0.354,0.45,0.508,0.822,0.309c0.01-0.004,0.021-0.016,0.028-0.021
		c1.957-1.088,6.186-7.916,8.887-13.437c1.364-2.789,2.321-5.213,2.411-6.418c0.009-0.136,0.032-0.292,0.02-0.395
		c-4.397,2.722-7.136,2.719-10.864,3.786c-0.498,0.144-1.014,0.301-1.558,0.493c0.278-0.209,0.536-0.417,0.799-0.626
		c5.101-4.045,7.478-7.985,12.987-9.47c1.483-0.4,3.185-0.631,5.245-0.628c4.695,0.007,6.063,2.437,5.999,5.882
		c-0.06,3.177-1.335,7.216-2.361,11.032c-1.028,3.827-1.8,7.426-0.821,9.686c1.413,3.255,3.831,5.854,6.046,8.591
		c1.229,1.52,2.397,3.08,3.291,4.823c0.415,0.81,2.069,5.394,3.914,6.862c-3.611,1.264-2.991,5.488-2.167,9.43
		c2.119,10.141,1.06,20.456-2.303,30.213c-5.192,15.063-15.074,29.391-30.018,36.028c13.8,0,22.285-10.218,27.728-21.771
		c3.526-7.486,6.048-15.434,7.123-23.655c1.322-10.095-1.266-20.863,2.21-30.636c-0.064,0-0.117,0.01-0.18,0.01
		c0.329-0.452,0.654-1.097,0.963-1.997c1.548-4.522,4.547-6.228,7.969-7.896c1.854-0.903,3.826-1.799,5.763-3.12
		c0.044-0.031,0.089-0.057,0.136-0.088c4.071-2.824,7.895-9.438,13.092-10.872c1.171-0.324,2.413-0.389,3.741-0.082
		c-0.252,0.357-0.287,1.105-0.157,2.107c0.532,4.138,3.928,12.781,6.938,17.909c1.33,2.271,2.584,3.844,3.48,4.028
		c-0.88,0-1.763,0-2.645,0c0.737,4.506,0.491,8.808-0.437,12.926c-2.583,11.466-10.58,21.481-18.399,30.266
		c-2.282,2.565-4.314,5.27-6.283,8.005c-1.023,1.424-2.036,2.856-3.052,4.286c-1.692,2.378-3.404,4.742-5.262,7.024
		c-4.86,5.971-12.176,9.356-18.449,13.555c-0.663,0.342-1.294,0.588-1.895,0.771c-1.326,0.395-2.525,0.445-3.695,0.33
		c-2.229-0.219-4.367-1.015-7.137-1.101c0.203,0.269,0.427,0.495,0.644,0.73c5.075,5.529,13.487,2.493,19.09-0.73
		c-0.845,0-1.687,0-2.529,0c2.157-0.131,4.229-0.645,5.799-2.447c0.227,0.652,0.563,1.177,1.007,1.582
		c0.463,0.423,1.047,0.715,1.754,0.865c-0.235-0.263-0.374-0.577-0.459-0.925c-1.508-6.185,19.873-25.042,22.863-28.835
		c10.767-13.658,19.68-28.314,19.454-46.302c-0.727-7.314-4.75-12.077-7.419-17.93c-0.396-0.864-0.755-1.755-1.077-2.681
		c-0.265-0.764-0.508-1.544-0.703-2.364c8.424,2.421,30.786,12.613,40.729,6.259c1.539-0.984,2.792-2.353,3.638-4.221
		c2.293,2.181,6.241,10.025,10.427,7.946C410.912,224.236,414.521,215.419,414.061,209.929z M322.228,230.976
		c-3.146,1.012-4.689-2.702-6.238-4.481c10.154-5.487,21.55-8.652,33.087-9.112c0.028-0.001,0.057-0.005,0.086-0.006
		c-0.036,0.05-0.075,0.097-0.112,0.146C342.792,226.065,332.892,231.287,322.228,230.976z M400.197,221.707
		c-0.097,0.015-0.191,0.037-0.29,0.051c-10.823,1.544-21.533-0.404-32.256-2.279c-6.154-1.077-12.314-2.101-18.503-2.441
		c-3.558-0.195-7.122-0.183-10.702,0.217c-6.119,0.685-21.324,9.713-26.236,3.756c-2.379-2.884-1.56-7.34,0.677-9.975
		c0.239-0.282,0.432-0.579,0.634-0.872c2.231-3.257,2.187-7.123,2.215-11.026c-0.709-0.626-1.409-1.26-2.113-1.89
		c-0.625-0.558-1.252-1.114-1.874-1.676c0.463-0.035,0.924-0.05,1.389-0.082c32.213-2.159,62.698,3.26,88.043,23.623
		c0.823,0.661,1.657,1.289,2.47,1.982C402.496,221.349,401.347,221.537,400.197,221.707z"/>
	<path d="M335.207,173.002c1.242,3.52-0.478,5.73-3.636,7.181c-0.522,0.24-1.088,0.456-1.681,0.657
		c-7.414,2.503-19.891,2.15-24.181,3.699c-3.069,1.11-6.451,2.294-9.878,3.648c0.139-0.038,0.282-0.06,0.423-0.096
		c0.044-0.011,0.09-0.019,0.133-0.03c0.935-0.231,1.877-0.446,2.824-0.636c1.121-0.226,2.245-0.442,3.358-0.692
		c5.719-1.283,11.523-2.185,17.329-3.057c3.218-0.484,6.438-0.961,9.643-1.483C337.054,180.97,339.1,179.47,335.207,173.002z"/>
	<path d="M292.463,189.323c-0.445,0.201-0.816,0.468-1.161,0.759c1.503-0.671,3.021-1.301,4.53-1.896
		C294.685,188.488,293.553,188.833,292.463,189.323z"/>
	<path d="M291.302,190.083c-3.895,1.734-7.661,3.78-10.984,6.219c-0.559,0.407-1.131,0.801-1.657,1.232
		c2.746-1.053,6.109-1.432,8.226-2.644c0.972-0.557,1.645-1.376,2.274-2.233C289.827,191.752,290.441,190.806,291.302,190.083z"/>
	<path d="M278.66,197.534c-0.539,0.206-1.049,0.439-1.525,0.708c-1.324,0.746-2.361,1.775-2.802,3.341
		c-0.241,0.38-0.483,0.761-0.724,1.141c0.128-0.174,0.272-0.337,0.405-0.507C275.36,200.507,276.926,198.951,278.66,197.534z"/>
	<path d="M363.754,166.724c-0.272,0.281-0.547,0.608-0.825,0.942c-1.083,1.301-2.24,2.798-3.667,2.933
		c-7.896,0.744-14.714-4.524-22.521-4.524c1.017,1.088,3.153,2.375,5.792,3.55c0.538,0.241,1.093,0.477,1.672,0.706
		c5.414,2.141,12.24,3.62,16.253,2.244c1.565-0.537,2.705-1.503,3.158-3.039c0.008-0.028,0.011-0.059,0.022-0.087
		C363.847,168.68,363.905,167.784,363.754,166.724z"/>
	<path d="M363.754,166.724c0.064-0.067,0.128-0.132,0.191-0.194c-0.088-0.118-0.175-0.232-0.268-0.353
		C363.717,166.369,363.727,166.541,363.754,166.724z"/>
	<path d="M343.231,166.075c-1.802-1.075-6.043-4.596-6.491-0.153C338.902,166.093,341.065,166.144,343.231,166.075z"/>
	<path d="M332.654,166.075c-2.284,0-4.567,0-6.851,0c1.991,0.7,4.037,1.175,6.133,1.426
		C332.177,167.026,332.416,166.551,332.654,166.075z"/>
	<path d="M85.246,193.842c-1.459,7.911,0.304,16.658-3.788,23.91c-4.594,8.145-9.459,15.507-12.857,24.33
		c1.227,0.352,2.846-0.854,4.609-2.928c5.703-6.707,12.919-22.61,13.258-25.295c2.146-17.028,2.286-32.146,11.013-47.784
		c-0.116,0.021-0.219,0.077-0.334,0.104C88.192,168.26,86.543,186.815,85.246,193.842z"/>
	<path d="M234.406,256.591c-1.987,3.063-4.092,5.928-6.531,8.474c2.783-2.634,5.168-5.738,6.94-9.021
		C234.676,256.222,234.532,256.396,234.406,256.591z"/>
	<path d="M236.957,251.037c-0.544,1.692-1.262,3.371-2.142,5.006c0.679-0.871,1.502-1.598,2.312-2.337
		c1.079-0.989,2.128-2.004,2.731-3.429c1.039-2.457,1.4-5.19,2.765-7.506c0.135-0.232,0.271-0.465,0.43-0.689
		c-0.295-0.078-0.579-0.116-0.854-0.139c1.504-0.365,2.697-1.327,3.563-2.916c-0.2,0.539-0.334,0.97-0.416,1.313
		c-0.024,0.103-0.04,0.192-0.056,0.279c-0.679,3.98,8.552-8.382,9.876-10.813c0.765-0.086,1.532-0.17,2.299-0.256
		c-0.108,0.524-0.238,1.046-0.352,1.57c-0.284,1.295-0.563,2.592-0.874,3.881c0.181-0.071,0.346-0.165,0.52-0.25
		c2.433-1.185,3.973-3.598,5.767-5.508c-1.771,1.377-3.543,2.752-5.313,4.127c0.596-1.885,1.189-3.771,1.785-5.654
		c-5.651-1.161-8.359,5.01-10.877,9.814c-0.746,1.423-1.473,2.73-2.257,3.687c0.181-0.441,0.351-0.889,0.53-1.329
		c0.985-2.402,1.959-4.811,2.896-7.23c-3.047,3.083-6.093,6.17-9.138,9.254c-0.056,0.058-0.113,0.113-0.168,0.17
		c0.031,0.005,0.063,0.002,0.096,0.005c0.188,0.016,0.373,0.019,0.558,0.023c-0.23,0.067-0.456,0.15-0.676,0.251
		c-2.207,1.021-3.843,3.611-5.447,5.225c1.142-0.323,2.284-0.645,3.426-0.969c-0.002,0.019-0.007,0.039-0.01,0.058
		c-0.003,0.045-0.019,0.088-0.022,0.133C237.736,248.214,237.408,249.628,236.957,251.037z"/>
	<path d="M63.808,318.144c0.013-0.002,0.024,0.004,0.039,0c-1.259-9.506,3.371-25.357-0.969-32.221
		c-2.33-3.685,0.904-15.021,1.661-19.055c1.589-8.472,4.078-16.768,7.231-24.786c-0.051-0.015-0.098-0.018-0.15-0.03
		C57.625,238.388,58.783,318.979,63.808,318.144z"/>
	<path d="M60.705,363.311c0.07-5.606,4.07-8.976,4.126-14.313c0.044-3.957,4.86-3.451,5.092-6.654
		c0.266-3.666-1.153-8.058-2.697-12.47c-1.38-3.939-2.848-7.891-3.323-11.363c-0.018-0.122-0.043-0.248-0.057-0.367
		c-0.012,0-0.025,0-0.039,0c-0.806,0-1.609,0-2.414,0c0.48,6.846,2.076,13.527,4.182,20.042c0.849,2.616,0.004,4.791-1.411,6.765
		c-1.591,2.212-3.909,4.165-5.394,6.177c-0.541,0.732-0.949,1.717-1.244,2.877c-0.241,0.939-0.396,2.009-0.496,3.147
		c-0.5,5.761,0.663,13.643,2.395,19.29c0.364,1.185,0.75,2.271,1.153,3.217c0.478,1.126,0.978,2.066,1.479,2.726
		c-0.059-0.165-0.092-0.335-0.144-0.503C60.025,375.927,60.628,369.45,60.705,363.311z"/>
	<path d="M330.991,332.78c-1.078-1.646-8.178-10.805-4.07-11.379c0.388-0.054,0.838-0.061,1.439,0.053
		c-0.031-0.059-0.06-0.117-0.092-0.173c-0.306-0.585-0.612-1.169-0.917-1.753c-0.223-0.425-0.448-0.849-0.669-1.272
		c-0.021-0.036-0.04-0.075-0.06-0.112c-0.512,0-1.022,0-1.532,0c2.157,2.383-2.387,0.203-0.631,5.307
		c1.156,3.357,2.25,6.761,3.909,9.914c4.411,8.385,11.18,14.665,13.484,24.211c-4.186-3.431-5.24-2.655-3.17,2.329
		c0.768,4.316,1.534,8.635,2.302,12.953c-1.315-1.5-2.592-4.178-4.763-4.719c-0.424-0.105-0.871-0.155-1.369-0.07
		c1.159,2.535,2.323,5.066,3.483,7.602c2.826,6.161,5.65,12.321,8.476,18.483c-0.761-3.814-1.801-7.577-3.154-11.223
		c-0.772-2.091-1.329-3.316-1.632-4.344c-0.38-1.288-0.359-2.261,0.211-4.142c0.021-0.074,0.024-0.151,0.045-0.225
		c0.094-0.34,0.147-0.688,0.205-1.033c0.543-3.233-0.342-6.749-1.189-10.113c-0.397-1.577-0.777-3.124-0.979-4.582
		c0.04,0.087,0.089,0.166,0.13,0.248c0.613,1.301,1.498,2.379,2.681,3.215c0-0.088-0.007-0.171-0.007-0.259
		C343.105,350.629,336.818,341.67,330.991,332.78z"/>
	<path d="M300.859,318.144c0.597,0,1.195,0,1.791,0C299.454,315.9,302.108,317.348,300.859,318.144z"/>
	<path d="M294.318,318.353c-5.48,0.508-10.871,1.851-16.375,2.202c-1.9,0.122-3.77-0.046-5.625-0.331
		c-3.813-0.584-7.572-1.668-11.408-2.002c-0.371-0.032-0.741-0.072-1.114-0.089c-9.459-3.715-17.451-11.095-22.815-19.708
		c-0.482-0.77-0.975-1.537-1.414-2.327c-4.589-8.299-5.129-20.589-14.239-25.69c0.636-0.39,1.248-0.799,1.839-1.224
		c1.725-1.24,3.274-2.625,4.709-4.119c-1.51,1.425-3.128,2.707-4.817,3.818c-2.999,1.968-6.219,3.377-9.447,3.971
		c1.077,0.73,2.135,0.952,3.169,0.963c1.616,0.017,3.175-0.475,4.659-0.371c0.689,0.049,1.364,0.23,2.019,0.654
		c0.653,0.425,1.291,1.084,1.904,2.109c4.003,6.687,5.024,14.617,9.25,21.232c4.359,6.821,12.613,19.021,21.931,20.58
		c0.29,0.048,0.58,0.095,0.872,0.122l0,0c0.131,0.072,0.268,0.131,0.397,0.201c0.415,0.219,0.832,0.43,1.251,0.633
		c0.198,0.097,0.394,0.201,0.593,0.294c10.87,5.078,23.437,5.186,34.61,0.757c1.075-0.508,2.152-1.016,3.226-1.526
		c0.256-0.118,0.508-0.239,0.762-0.358C296.935,318.144,295.624,318.231,294.318,318.353z"/>
	<path d="M258.129,77.381c-4.055-2.412-8.109-4.822-12.164-7.233c1.954,1.348,3.904,2.7,5.854,4.047
		c1.909,1.315,3.814,2.632,5.72,3.951c0.083,0.058,0.167,0.115,0.248,0.172c0.948,0.658,1.899,1.309,2.845,1.967
		c-1.804-3.261-3.61-6.521-5.416-9.781c3.851,3.345,7.703,6.691,11.553,10.037c-2.558-4.274-6.043-8.071-10.306-10.668
		c-0.945-0.576-1.914-1.111-2.934-1.559C253.611,71.905,256.348,74.561,258.129,77.381z"/>
	<path d="M294.881,96.179c-0.643-1.815-1.325-3.614-2.047-5.4c1.739,7.438,3.478,14.875,5.216,22.314
		C297.884,107.334,296.777,101.615,294.881,96.179z"/>
	<path d="M256.463,161.155c1.564-0.963,7.681-3.817,7.838-5.917c0.471-6.348-5.183-12.863-9.896-16.412
		c-4.477-3.37-10.062-5.58-15.65-5.994c-0.858-0.063-7.406,0.096-9.783,0.027c3.011,0.315,2.813,1.193-0.676,2.646
		c-2.564,2.249-4.362,5.312-5.33,8.562c0.249-4.916,0.188-8.869,5.517-10.8c-11.231,0-7.609,14.807-3.709,20.694
		C231.356,163.896,246.333,167.38,256.463,161.155z M258.997,155.326c1.021-0.815,2.046-1.63,3.066-2.445
		c-0.679,6.479-9.547,9.123-14.77,10.342c8.076-5.742,7.386-14.758,5.979-23.486C257.153,142.66,265.639,150.866,258.997,155.326z
		 M227.92,139.125c0.915-0.623,1.949-1.201,3.049-1.72c2.364-1.113,5.056-1.916,7.7-2.091c3.753-0.25,7.397,0.75,9.792,3.911
		c0.326,0.431,0.641,0.879,0.942,1.334c2.648,3.998,4.204,8.815,3.135,13.021c-0.631,2.482-2.156,4.752-4.949,6.506
		c-0.82,0.515-1.677,0.904-2.553,1.197c-7.617,2.547-16.802-2.974-19.63-10.06C223.838,147.298,224.219,142.896,227.92,139.125z"/>
	<path d="M228.972,132.86c-0.277-0.029-0.537-0.06-0.868-0.08C228.129,132.821,228.459,132.846,228.972,132.86z"/>
	<path d="M235.372,156.12c2.571,1.754,4.917,1.834,6.804,0.915c4.847-2.363,6.67-11.341,1.542-15.566
		c0.069,4.236-7.171,3.021-4.705-1.172c-0.384-0.075-0.733-0.083-1.083-0.092c-0.488-0.014-0.947,0.026-1.375,0.128
		c-0.114,0.027-0.232,0.042-0.344,0.078C230.765,142.137,230.856,153.039,235.372,156.12z"/>
	<path d="M235.489,168.316c-11.194-5.664-18.9-17.327-17.482-30.108c0.658-1.525,0.709-3.071,0.152-4.636
		C214.104,146.651,219.729,166.711,235.489,168.316z"/>
	<path d="M145.17,157.567c2.561,0.012,4.877-0.736,6.952-2.241C152.122,153.894,145.781,157.3,145.17,157.567z"/>
	<path d="M164.615,206.648c-0.03-0.065-0.055-0.14-0.083-0.207c-0.032,0.027-0.063,0.055-0.094,0.082
		C164.494,206.569,164.557,206.604,164.615,206.648z"/>
	<path d="M158.261,183.964c-1.809-1.359-3.176-3.28-4.153-5.408c-0.144-0.313-0.271-0.633-0.397-0.955
		c-0.002-0.003-0.002-0.007-0.005-0.01c-0.799-2.028-1.278-4.187-1.432-6.218c-1.09,2.149-1.533,4.425-1.329,6.827
		c0.088,3.702,6.037,12.72-1.02,13.5c1.674,4.074,0.123,6.826-0.629,10.835c-0.728,3.883,3.378,6.143,5.69,8.371
		c-0.647-0.193-1.28-0.43-1.923-0.638c-0.947-0.308-1.898-0.598-2.831-0.941c0.358,6.958,10.259,7.625,3.066,10.953
		c2.418,0.186,10.872,2.927,12.627,0.702c0.907-1.151-3.23-3.854-0.364-5.465c3.26-1.833,5.981-4.219,8.795-6.649
		c-0.851,0.15-1.716,0.218-2.578,0.202c-0.51-0.008-1.02-0.057-1.524-0.125c-2.031-0.276-3.984-1.025-5.637-2.295
		c0.693,1.563,1.696,2.729,3.202,3.213c0.824,0.265,1.814,0.306,2.98,0.1c0.23-0.041,0.449-0.064,0.694-0.125
		c-2.924,1.714-9.674,6.001-7.768,9.985c-0.462,0.027-0.927,0.026-1.389,0.052c-1.787,0.093-3.573,0.178-5.36,0.202
		c2.387-0.979-3.298-5.832-5.181-8.377c-0.087-0.117-0.173-0.234-0.241-0.34c-0.211-0.324-0.345-0.603-0.353-0.809
		c0.869,0.376,1.614,0.603,2.242,0.705c0.637,0.102,1.139,0.065,1.496-0.097c0.551-0.25,0.756-0.797,0.563-1.611
		c-0.165-0.706-0.621-1.604-1.421-2.684c-2.771-3.739-1.976-5.189-0.603-9.324c1.246-3.746-2.481-2.138-0.765-5.586
		c0.281-0.564,0.693-1.25,1.311-2.132c2.176-3.098,1.54-5.274,0.188-7.757c-0.472-0.86-1.024-1.757-1.579-2.743
		c1.85,1.859,4.211,3.145,5.758,5.32c3.514,4.935-4.1,3.946,5.179,5.326c-0.464,0.531-0.928,1.063-1.394,1.595
		c-0.114,0.13-0.229,0.261-0.343,0.392c0.029,0.092,0.049,0.204,0.077,0.3c0.6,2.042,0.84,4.778,1.174,7.513
		c0.199,1.631,0.44,3.246,0.816,4.708c0.179,0.694,0.379,1.362,0.632,1.966c1.741-1.501,3.482-3.002,5.223-4.502
		c-3.897,1.773-5.35-2.841-4.776-5.74c1.143-5.802-4.204-1.263,1.351-7.352c-1.08-0.015-2.16-0.057-3.237-0.118
		c-0.863-0.049-1.729-0.108-2.59-0.188c4.011-0.686-0.471-3.365-1.976-4.391C158.422,184.08,158.333,184.017,158.261,183.964z"/>
	<path d="M270.041,123.332c2.009,3.023,4.019,6.046,6.029,9.069C275.524,128.674,273.126,125.39,270.041,123.332z"/>
	<path d="M258.282,119.104c5.844,5.603,11.689,11.208,17.533,16.811C272.311,128.247,264.979,123.68,258.282,119.104z"/>
	<path d="M268.656,155.02c-6.03,5.254-11.081,12.05-19.266,14.01c4.604-0.128,9.206-1.563,12.881-4.382
		c2.465-1.892,4.428-7.491,8.116-7.503c0.237,0,0.476,0.018,0.726,0.065c-0.525-2.208-1.27-4.375-2.209-6.469
		c-6.559-14.616-22.581-25.656-38.835-22.009C247.225,128.494,261.796,139.737,268.656,155.02z"/>
	<path d="M309.396,125.574c-1.792-1.191,0.89,11.656,1.279,14.112C310.248,134.982,309.822,130.278,309.396,125.574z"/>
	<path d="M150.026,166.279c-5.194-4.561-13.031,1.617-15.132,6.571C138.529,168.424,144.32,165.95,150.026,166.279z"/>
	<path d="M143.431,215.236c-6.56-0.754-9.219,9.583-9.712,14.364C136.278,225.074,137.482,216.729,143.431,215.236z"/>
	<path d="M142.001,224.049c1.725-1.085,2.628-2.647,2.708-4.687C143.805,220.924,142.903,222.485,142.001,224.049z"/>
	<path d="M144.607,229.807c1.449-2.276,2.896-4.551,4.343-6.827C146.019,223.791,144.589,227.021,144.607,229.807z"/>
	<path d="M148.338,248.655c1.065,2.219-0.151-7.601,0.211-10.014c0.748-4.987,2.78-9.762,5.975-13.676
		C147.235,230.517,144.959,240.257,148.338,248.655z"/>
	<path d="M125.132,261.952c-3.167,9.411-7.67,18.453-13.954,26.185c-0.869,1.036-1.738,2.07-2.606,3.107
		C117.453,283.781,123.786,273.6,125.132,261.952z"/>
	<path d="M122.73,299.549c1.719-1.438,2.469-3.273,2.248-5.502C124.193,295.865,123.442,297.699,122.73,299.549z"/>
	<path d="M121.248,284.979c-4.208-0.384-7.372,11.238-8.997,14.009C116.419,295.195,119.568,290.364,121.248,284.979z"/>
	<path d="M121.555,293.588c-1.533,2.241-3.066,4.482-4.6,6.725C119.218,298.694,120.807,296.246,121.555,293.588z"/>
	<path d="M122.73,374.538c0.954-0.662,1.908-1.326,2.862-1.986c5.424-6.901,9.669-14.768,12.063-23.231
		C131.541,357.042,129.305,367.125,122.73,374.538z"/>
	<path d="M227.565,362.77c-0.485,1.862-0.758,3.768-0.879,5.684c-0.278,4.392,0.333,8.844,1.694,13.014
		c0.162,0.482,0.324,0.962,0.485,1.446c0.11,0.333,0.223,0.665,0.334,0.999c-0.078-0.315-0.143-0.632-0.218-0.947
		c-1.09-4.632-1.66-9.387-1.682-14.146C227.295,366.8,227.374,364.778,227.565,362.77z"/>
	<path d="M232.419,371.584c2.184,5.914,7.351,11.047,13.444,12.837C240.579,381.11,235.904,376.771,232.419,371.584z"/>
	<path d="M233.955,377.543c-1.143-2.037-2.283-4.074-3.426-6.112C230.63,374.054,231.771,376.089,233.955,377.543z"/>
	<path d="M250.72,383.249c-2.317-1.936-4.635-3.872-6.953-5.809C244.785,380.523,247.739,382.44,250.72,383.249z"/>
	<path d="M147.213,152.166c2.437-1.052,4.875-2.105,7.311-3.157C151.748,148.819,149.019,150.087,147.213,152.166z"/>
</g>
</svg>
